<svg width="80" height="80" viewBox="0 0 80 80" xmlns="http://www.w3.org/2000/svg" xmlns:xlink="http://www.w3.org/1999/xlink"><title>Yes</title><desc>Created using Figma</desc><use xlink:href="#a" fill="#A8E4BB"/><use xlink:href="#b" transform="translate(.128 1.747)" fill="#1AB744"/><g transform="translate(71.78 63.523)"><use xlink:href="#c" fill="#FFF"/><use xlink:href="#d" fill="#1AB744"/></g><g transform="translate(25.805 4.676)"><use xlink:href="#e" fill="#FFF"/><use xlink:href="#f" fill="#1AB744"/></g><g transform="translate(5.32 47.54)"><use xlink:href="#g" fill="#FFF"/><use xlink:href="#h" fill="#A8E4BB"/></g><use xlink:href="#i" transform="translate(39.292 74.678)" fill="#A8E4BB"/><use xlink:href="#j" transform="translate(5.93 37.856)" fill="#1AB744"/><use xlink:href="#k" transform="translate(63.505 14.118)" fill="#1AB744"/><use xlink:href="#l" transform="translate(61.94 15.683)" fill="#1AB744"/><use xlink:href="#m" transform="translate(23.177 43.42)" fill="#1B9B4A"/><use xlink:href="#n" transform="translate(22.177 41.574)" fill="#0D47A1"/><use xlink:href="#o" transform="translate(13.203 21.086)" fill="#1B9B4A"/><use xlink:href="#p" transform="translate(12.203 20.087)" fill="#0D47A1"/><use xlink:href="#q" transform="translate(13.203 17.086)" fill="#1AB744"/><use xlink:href="#r" transform="translate(12.203 16.087)" fill="#0D47A1"/><g><use xlink:href="#s" transform="translate(14.203 32.988)" fill="#A8E4BB"/></g><g transform="translate(-140 -293)"><use xlink:href="#t" transform="translate(166.589 326.529)" fill="#0D47A1"/></g><g><use xlink:href="#u" transform="translate(23.433 59.533)" fill="#FFE082"/><use xlink:href="#v" transform="translate(22.433 58.533)" fill="#0D47A1"/></g><defs><path id="a" d="M64.617 0h.014c.695.02 1.382.08 2.043.178a.5.5 0 0 1-.147.988A16.181 16.181 0 0 0 64.605 1a.5.5 0 0 1 .013-1zm-1.99.032a.5.5 0 0 1 .025 1c-.658.034-1.313.091-1.948.172A.5.5 0 1 1 60.58.21 27.545 27.545 0 0 1 62.6.033h.026zm-3.95.498a.5.5 0 0 1 .1.99c-.64.133-1.277.29-1.895.47a.5.5 0 0 1-.277-.961A26.01 26.01 0 0 1 58.577.54a.507.507 0 0 1 .1-.01zm9.87.056c.045 0 .09.006.135.019a15.25 15.25 0 0 1 1.94.69.5.5 0 0 1-.396.918 14.272 14.272 0 0 0-1.812-.645.5.5 0 0 1 .134-.982zM54.856 1.644a.5.5 0 0 1 .177.967c-.605.232-1.207.493-1.789.775a.5.5 0 0 1-.433-.9 23.434 23.434 0 0 1 1.868-.809.49.49 0 0 1 .177-.033zm17.337.528c.089 0 .178.023.259.073.587.36 1.153.763 1.68 1.2.213.175.243.49.068.704a.496.496 0 0 1-.701.067A13.642 13.642 0 0 0 71.932 3.1a.501.501 0 0 1 .26-.927zM51.271 3.38a.5.5 0 0 1 .255.93c-.557.332-1.107.693-1.633 1.07a.497.497 0 0 1-.695-.116.502.502 0 0 1 .116-.698 24.22 24.22 0 0 1 1.703-1.116.492.492 0 0 1 .254-.07zm23.99 1.324c.135 0 .269.054.367.16.46.503.893 1.046 1.287 1.614a.5.5 0 0 1-.125.695.497.497 0 0 1-.694-.125 14.156 14.156 0 0 0-1.202-1.505.502.502 0 0 1 .367-.84zm-27.227 1a.5.5 0 0 1 .323.88c-.491.422-.972.87-1.428 1.334a.497.497 0 0 1-.705.004.501.501 0 0 1-.004-.708c.476-.483.978-.95 1.49-1.39a.49.49 0 0 1 .324-.12zm29.498 2.27c.18 0 .355.099.443.27.31.604.588 1.239.826 1.887a.5.5 0 0 1-.295.642.495.495 0 0 1-.64-.296 15.713 15.713 0 0 0-.776-1.773.502.502 0 0 1 .442-.73zm-32.298.573c.113 0 .227.038.32.116.21.178.239.493.063.705a22.714 22.714 0 0 0-1.186 1.554.496.496 0 0 1-.694.122.5.5 0 0 1-.122-.697c.39-.558.806-1.104 1.237-1.621.1-.119.24-.18.382-.18zm33.672 3.173a.5.5 0 0 1 .485.385c.154.659.273 1.34.354 2.026a.5.5 0 0 1-.436.554.495.495 0 0 1-.553-.437 17 17 0 0 0-.336-1.913.5.5 0 0 1 .486-.615zm-35.956.101a.5.5 0 0 1 .431.75c-.328.571-.628 1.154-.895 1.736a.497.497 0 1 1-.905-.419c.28-.608.595-1.22.938-1.817.092-.16.26-.25.431-.25zm-1.659 3.633a.5.5 0 0 1 .471.662c-.06.176-.116.35-.17.523l-.02-.006.01.043c-.036.1-.195.565-.394 1.32a.496.496 0 0 1-.608.357.5.5 0 0 1-.355-.61c.208-.798.378-1.288.414-1.394l.003.001v-.006c.055-.182.115-.367.178-.552a.498.498 0 0 1 .471-.338zm38.083.229a.5.5 0 0 1 .498.495v.147c0 .63-.03 1.27-.093 1.905a.505.505 0 0 1-.544.45.5.5 0 0 1-.447-.548c.058-.6.088-1.21.088-1.807v-.137a.5.5 0 0 1 .492-.505h.006zM40.268 19.32a.5.5 0 0 1 .49.594c-.111.586-.215 1.237-.302 1.944a.498.498 0 0 1-.989-.121c.083-.68.187-1.355.312-2.01a.499.499 0 0 1 .488-.407zm38.722.339a.5.5 0 0 1 .489.599 22.41 22.41 0 0 1-.495 1.984.495.495 0 0 1-.62.335.5.5 0 0 1-.334-.622 21.417 21.417 0 0 0 .472-1.895.499.499 0 0 1 .488-.401zM39.782 23.29h.03a.499.499 0 0 1 .467.53c-.031.543-.049 1.11-.049 1.694l.003.27a.5.5 0 0 1-.494.506h-.005a.5.5 0 0 1-.498-.495l-.002-.275c0-.61.018-1.195.05-1.76a.499.499 0 0 1 .498-.47zm38.056.186a.5.5 0 0 1 .46.694c-.271.645-.576 1.265-.908 1.844a.498.498 0 1 1-.864-.499c.312-.543.598-1.126.852-1.733a.498.498 0 0 1 .46-.306zm-1.984 3.445a.501.501 0 0 1 .394.806c-.417.54-.877 1.059-1.37 1.54a.499.499 0 1 1-.695-.715c.458-.45.888-.934 1.276-1.437a.496.496 0 0 1 .395-.194zm-36.032.368c.257 0 .475.199.495.46.053.658.13 1.313.229 1.95a.5.5 0 0 1-.416.57.502.502 0 0 1-.569-.416 26.781 26.781 0 0 1-.236-2.023.498.498 0 0 1 .456-.539l.04-.002zm33.195 2.415a.502.502 0 0 1 .299.9c-.53.398-1.105.78-1.708 1.131a.495.495 0 0 1-.681-.182.501.501 0 0 1 .18-.683c.57-.332 1.113-.691 1.612-1.066.09-.068.195-.1.298-.1zm-3.427 2.017a.5.5 0 0 1 .209.954c-.586.27-1.216.532-1.874.779a.497.497 0 0 1-.64-.295.502.502 0 0 1 .293-.643 25.74 25.74 0 0 0 1.804-.75.491.491 0 0 1 .208-.046zm-3.726 1.4a.499.499 0 0 1 .145.978c-.625.19-1.272.37-1.942.54a.501.501 0 0 1-.243-.971 38.491 38.491 0 0 0 1.895-.526.498.498 0 0 1 .145-.022zm-3.86.982a.5.5 0 0 1 .103.99c-.638.136-1.294.264-1.97.386a.501.501 0 0 1-.176-.985c.665-.12 1.312-.246 1.94-.38a.541.541 0 0 1 .103-.01zm-3.92.712a.5.5 0 0 1 .076.994c-.644.1-1.305.197-1.98.289a.49.49 0 0 1-.561-.428.5.5 0 0 1 .427-.563c.67-.091 1.324-.186 1.962-.286a.513.513 0 0 1 .077-.006zm-3.948.54a.5.5 0 0 1 .06.997c-.65.079-1.312.154-1.988.226a.5.5 0 0 1-.104-.995c.67-.071 1.328-.146 1.973-.224a.414.414 0 0 1 .06-.004zm-3.962.428a.5.5 0 0 1 .048.998c-.651.064-1.314.126-1.989.186a.5.5 0 1 1-.09-.996c.673-.06 1.334-.122 1.982-.186a.793.793 0 0 1 .049-.002zm-3.969.36a.499.499 0 1 1 .04.998l-1.956.161a.503.503 0 0 1-.552-.457.486.486 0 0 1 .441-.537l1.985-.163a.613.613 0 0 1 .042-.002zm-3.972.32c.257 0 .476.199.495.461a.498.498 0 0 1-.458.537l-1.987.15c-.273.04-.515-.184-.535-.459a.499.499 0 0 1 .457-.537l1.99-.15c.012-.003.025-.003.038-.003zm-3.974.322a.5.5 0 0 1 .047.998c-.663.063-1.32.131-1.975.205a.5.5 0 0 1-.11-.994 128.9 128.9 0 0 1 1.99-.207.793.793 0 0 1 .048-.002zm-3.962.448a.5.5 0 0 1 .064.996c-.66.087-1.314.18-1.964.278a.5.5 0 0 1-.148-.989c.656-.1 1.317-.193 1.983-.281a.475.475 0 0 1 .065-.004zm-3.942.6c.238 0 .448.172.49.415a.499.499 0 0 1-.405.578c-.655.116-1.306.236-1.95.363a.499.499 0 0 1-.192-.981 85.258 85.258 0 0 1 1.97-.366.43.43 0 0 1 .087-.008zm-3.913.774a.5.5 0 0 1 .11.99c-.65.145-1.294.297-1.928.456a.5.5 0 0 1-.242-.97 79.058 79.058 0 0 1 1.951-.464.531.531 0 0 1 .11-.011zm-3.866.977a.502.502 0 0 1 .135.982c-.64.18-1.272.37-1.893.568a.501.501 0 0 1-.302-.953 63.45 63.45 0 0 1 1.925-.579.501.501 0 0 1 .135-.019zm-3.797 1.213a.5.5 0 0 1 .167.971c-.627.224-1.242.459-1.844.701a.499.499 0 0 1-.372-.928 49.479 49.479 0 0 1 1.882-.715.478.478 0 0 1 .167-.03zM15.08 42.29a.5.5 0 0 1 .207.956c-.607.276-1.198.563-1.773.86a.5.5 0 0 1-.456-.892c.59-.302 1.196-.596 1.816-.879a.502.502 0 0 1 .206-.045zm-3.54 1.832a.502.502 0 0 1 .252.932c-.572.336-1.125.685-1.659 1.047a.497.497 0 0 1-.692-.134.5.5 0 0 1 .133-.694 32.148 32.148 0 0 1 1.714-1.083.501.501 0 0 1 .252-.068zm-3.297 2.24c.148 0 .294.065.392.19a.502.502 0 0 1-.084.703c-.517.406-1.018.832-1.488 1.267a.5.5 0 0 1-.675-.737c.49-.452 1.01-.895 1.548-1.317a.498.498 0 0 1 .307-.107zm-2.921 2.709a.502.502 0 0 1 .369.836c-.441.488-.856.994-1.23 1.504a.5.5 0 0 1-.802-.594c.395-.538.831-1.069 1.294-1.582a.497.497 0 0 1 .369-.164zm40.133 2.96a.501.501 0 0 1 .447.722c-.31.627-.605 1.224-.89 1.793a.497.497 0 0 1-.67.223.503.503 0 0 1-.221-.672c.284-.567.58-1.162.887-1.787a.498.498 0 0 1 .447-.278zm-42.495.25c.086 0 .173.022.252.067.238.14.317.447.178.685a17.327 17.327 0 0 0-.881 1.723.498.498 0 1 1-.911-.405c.27-.614.585-1.228.932-1.824a.5.5 0 0 1 .43-.247zm40.707 3.325a.5.5 0 0 1 .444.727c-.322.635-.626 1.228-.914 1.782a.495.495 0 0 1-.67.213.5.5 0 0 1-.213-.674c.285-.552.588-1.143.909-1.774a.497.497 0 0 1 .444-.274zM1.35 55.92a.5.5 0 0 1 .475.65c-.19.606-.35 1.24-.477 1.88a.494.494 0 0 1-.585.394.5.5 0 0 1-.392-.587 18.77 18.77 0 0 1 .504-1.987.498.498 0 0 1 .475-.35zm40.48 3.236a.5.5 0 0 1 .44.735c-.35.662-.666 1.248-.949 1.766a.498.498 0 1 1-.873-.48c.28-.515.594-1.098.943-1.755a.498.498 0 0 1 .44-.266zm-41.252.673l.046.002a.5.5 0 0 1 .451.544 20.305 20.305 0 0 0-.079 1.801l.001.14a.5.5 0 0 1-.488.51c-.246-.017-.502-.214-.508-.49L0 62.175c0-.637.028-1.274.083-1.891a.499.499 0 0 1 .495-.456zm39.335 2.832a.501.501 0 0 1 .432.75 35.917 35.917 0 0 1-1.04 1.738.496.496 0 0 1-.69.143.502.502 0 0 1-.143-.692c.098-.152.419-.655 1.01-1.688a.498.498 0 0 1 .431-.25zM.615 63.822a.5.5 0 0 1 .494.444c.073.643.184 1.286.33 1.911a.502.502 0 0 1-.371.602.494.494 0 0 1-.6-.373 18.108 18.108 0 0 1-.35-2.027.5.5 0 0 1 .497-.557zm37.163 2.213a.501.501 0 0 1 .408.787c-.393.564-.79 1.108-1.19 1.63a.494.494 0 0 1-.697.093.5.5 0 0 1-.092-.7c.39-.513.778-1.045 1.163-1.597a.496.496 0 0 1 .408-.213zM1.518 67.71c.203 0 .395.127.468.331.22.612.474 1.213.758 1.786a.5.5 0 0 1-.224.67.495.495 0 0 1-.667-.225 17.73 17.73 0 0 1-.805-1.893.502.502 0 0 1 .47-.669zm33.835 1.496a.5.5 0 0 1 .382.822c-.444.529-.89 1.034-1.34 1.515a.498.498 0 0 1-.705.024.503.503 0 0 1-.023-.707c.438-.47.873-.962 1.305-1.477a.5.5 0 0 1 .381-.177zM3.285 71.287c.163 0 .322.08.418.228.348.537.734 1.064 1.147 1.563a.5.5 0 0 1-.065.704.498.498 0 0 1-.702-.065 17.616 17.616 0 0 1-1.215-1.657.501.501 0 0 1 .417-.773zm29.344.835a.502.502 0 0 1 .344.862c-.501.479-1.004.93-1.508 1.355a.495.495 0 0 1-.702-.061.5.5 0 0 1 .061-.705 30.31 30.31 0 0 0 1.46-1.313.497.497 0 0 1 .345-.138zM5.827 74.357c.124 0 .247.046.344.138.464.443.96.864 1.475 1.25a.5.5 0 1 1-.597.801 17.379 17.379 0 0 1-1.566-1.327.502.502 0 0 1 .344-.862zm23.75.332c.154 0 .304.071.403.205a.503.503 0 0 1-.11.7c-.548.4-1.114.783-1.685 1.137a.5.5 0 0 1-.523-.852 24.713 24.713 0 0 0 1.621-1.094.498.498 0 0 1 .294-.096zM9.009 76.747a.49.49 0 0 1 .25.068c.553.321 1.134.613 1.726.869a.5.5 0 0 1-.393.918 17.273 17.273 0 0 1-1.832-.922.5.5 0 0 1 .25-.933zm17.178.037a.5.5 0 0 1 .226.946c-.61.312-1.234.596-1.857.845a.5.5 0 0 1-.367-.93c.593-.237 1.19-.509 1.773-.806a.49.49 0 0 1 .226-.055zM22.49 78.26a.501.501 0 0 1 .14.98c-.658.193-1.328.35-1.991.47a.5.5 0 1 1-.175-.985c.63-.114 1.264-.263 1.887-.445a.492.492 0 0 1 .139-.02zm-9.828.06c.046 0 .094.007.14.02.611.18 1.246.326 1.884.434a.5.5 0 0 1-.165.987c-.678-.115-1.35-.27-1.999-.461a.5.5 0 0 1 .14-.98zm5.914.64a.5.5 0 1 1 .032 1 17.13 17.13 0 0 1-2.05.019.499.499 0 0 1-.472-.524.498.498 0 0 1 .521-.475c.638.03 1.28.025 1.935-.018l.034-.001z"/><path id="b" d="M15.068 0c.273 0 .495.223.496.498A.498.498 0 0 1 15.07 1c-.649.003-1.294.045-1.918.124a.496.496 0 0 1-.554-.434.5.5 0 0 1 .43-.558c.664-.084 1.35-.13 2.038-.132h.002zm1.976.111a.54.54 0 0 1 .056.003c.657.074 1.333.189 2.006.338a.5.5 0 0 1-.213.977c-.64-.143-1.28-.25-1.904-.32a.5.5 0 0 1 .055-.998zm-5.902.393a.501.501 0 0 1 .124.984c-.613.16-1.226.363-1.823.603a.5.5 0 0 1-.368-.928C9.71.906 10.365.69 11.018.52a.496.496 0 0 1 .124-.016zm9.77.46c.05 0 .102.008.152.024a23.02 23.02 0 0 1 1.9.711c.251.108.37.4.264.655a.495.495 0 0 1-.65.267 22.492 22.492 0 0 0-1.818-.682.5.5 0 0 1 .152-.975zM7.468 1.984a.5.5 0 0 1 .237.938c-.191.106-.382.217-.573.333-.355.217-.702.455-1.03.707a.493.493 0 0 1-.695-.094.503.503 0 0 1 .093-.701c.357-.274.733-.532 1.119-.768.202-.124.407-.242.612-.354a.483.483 0 0 1 .237-.062zm17.1.525c.077 0 .154.017.227.055.592.31 1.184.645 1.76 1a.504.504 0 0 1 .164.687.495.495 0 0 1-.682.166 27.416 27.416 0 0 0-1.697-.964.502.502 0 0 1 .227-.944zM4.327 4.397c.123 0 .246.046.341.138a.503.503 0 0 1 .018.707c-.431.456-.836.957-1.204 1.49a.493.493 0 0 1-.69.124.5.5 0 0 1-.123-.695c.396-.575.832-1.116 1.298-1.608a.493.493 0 0 1 .36-.156zm23.626.193c.1 0 .2.03.286.092a31 31 0 0 1 1.608 1.228c.212.175.245.49.073.704a.495.495 0 0 1-.699.074c-.5-.41-1.019-.808-1.555-1.19a.504.504 0 0 1-.118-.697.494.494 0 0 1 .405-.211zm3.081 2.516a.49.49 0 0 1 .336.133c.498.463.98.944 1.436 1.428.188.2.18.517-.019.707a.495.495 0 0 1-.701-.02c-.437-.464-.9-.926-1.388-1.38a.502.502 0 0 1 .336-.868zm-28.972.558a.503.503 0 0 1 .444.724 14.42 14.42 0 0 0-.739 1.782.5.5 0 0 1-.63.312.502.502 0 0 1-.31-.634A15.66 15.66 0 0 1 1.62 7.94a.497.497 0 0 1 .443-.276zm31.698 2.349c.143 0 .286.062.384.183.44.542.849 1.093 1.216 1.636a.502.502 0 0 1-.13.694.494.494 0 0 1-.69-.131 22.844 22.844 0 0 0-1.163-1.566.502.502 0 0 1 .383-.816zM.781 11.438a.5.5 0 0 1 .487.599c-.125.624-.212 1.27-.258 1.918a.51.51 0 0 1-.53.463.5.5 0 0 1-.46-.535c.05-.69.143-1.378.276-2.044a.497.497 0 0 1 .485-.402zm35.198 1.887c.178 0 .35.097.439.268.335.641.598 1.261.783 1.842.081.26-.042.574-.296.663-.256.09-.52-.006-.613-.26l-.036-.098a10.657 10.657 0 0 0-.716-1.682.5.5 0 0 1 .439-.733zM.496 15.42c.262 0 .48.207.494.474.033.64.107 1.288.218 1.923a.495.495 0 1 1-.976.174 16.766 16.766 0 0 1-.231-2.045.497.497 0 0 1 .468-.525l.027-.001zm36.833 1.66c.222 0 .424.15.48.377.139.55.287 1.211.431 1.983a.499.499 0 0 1-.395.584.5.5 0 0 1-.58-.399c-.14-.748-.284-1.39-.416-1.924a.499.499 0 0 1 .48-.622zM1.188 19.345c.212 0 .409.137.474.353.186.612.414 1.222.675 1.813a.5.5 0 0 1-.25.66.491.491 0 0 1-.654-.252 16.595 16.595 0 0 1-.719-1.928.5.5 0 0 1 .474-.646zm36.886 1.659c.243 0 .456.181.49.431.085.622.164 1.29.233 2.007a.5.5 0 0 1-.447.546.51.51 0 0 1-.54-.45 48.574 48.574 0 0 0-.228-1.966.498.498 0 0 1 .492-.568zm-35.27 1.98c.167 0 .33.086.423.242.329.548.696 1.087 1.09 1.598a.502.502 0 0 1-.087.701.492.492 0 0 1-.696-.087 17.567 17.567 0 0 1-1.155-1.695.502.502 0 0 1 .424-.759zm35.651 2c.262 0 .48.205.495.471.037.642.065 1.313.082 2.016a.498.498 0 0 1-.483.512c-.295.016-.502-.213-.508-.487a59.958 59.958 0 0 0-.08-1.982.498.498 0 0 1 .465-.529h.03zM5.231 26.137c.128 0 .257.05.354.15.447.458.926.9 1.423 1.31.212.174.243.489.07.703a.49.49 0 0 1-.697.07 18.922 18.922 0 0 1-1.503-1.383.503.503 0 0 1 .005-.707.492.492 0 0 1 .348-.143zM8.29 28.67c.094 0 .19.026.273.083.533.354 1.093.69 1.664.999a.5.5 0 0 1 .204.676.49.49 0 0 1-.67.205c-.6-.322-1.186-.675-1.744-1.046a.502.502 0 0 1 .273-.917zm30.26.313h.005a.498.498 0 0 1 .49.505l-.002.302a.498.498 0 0 1-.496.495h-.005a.498.498 0 0 1-.49-.505l.002-.302a.498.498 0 0 1 .496-.495zm12.336.176c.667.001 1.337.02 2.01.058a.497.497 0 0 1 .467.526c-.015.276-.238.5-.523.472a36.514 36.514 0 0 0-1.955-.056.498.498 0 0 1-.495-.5c0-.276.222-.5.496-.5zm-1.982.043c.264 0 .483.21.495.479a.499.499 0 0 1-.474.521c-.655.028-1.308.072-1.959.13a.503.503 0 0 1-.536-.456.498.498 0 0 1 .451-.541c.664-.059 1.33-.103 2-.133h.023zm5.94.18c.018 0 .037.002.056.004.661.075 1.326.17 1.993.289a.5.5 0 0 1 .403.578.493.493 0 0 1-.574.406 31.814 31.814 0 0 0-1.934-.28.5.5 0 0 1-.437-.552.498.498 0 0 1 .492-.444zm-9.892.156c.247 0 .461.187.491.44a.498.498 0 0 1-.433.556c-.653.08-1.304.168-1.951.265a.496.496 0 0 1-.563-.421.498.498 0 0 1 .418-.567c.656-.1 1.316-.19 1.978-.269a.417.417 0 0 1 .06-.004zm13.797.534c.039 0 .078.005.117.014.645.157 1.292.337 1.943.54a.501.501 0 0 1 .327.626.493.493 0 0 1-.62.33 29.733 29.733 0 0 0-1.883-.523.5.5 0 0 1 .116-.987zm-17.722.048a.5.5 0 0 1 .081.993c-.65.11-1.298.228-1.945.348a.497.497 0 0 1-.577-.4.498.498 0 0 1 .397-.582c.652-.123 1.305-.24 1.96-.352a.478.478 0 0 1 .084-.007zm-29.246.438c.066 0 .132.012.196.04.58.252 1.191.487 1.815.7a.502.502 0 0 1 .31.635c-.09.261-.371.399-.63.312a26.336 26.336 0 0 1-1.886-.727.503.503 0 0 1-.26-.658.497.497 0 0 1 .455-.302zm25.344.28a.5.5 0 0 1 .092.991l-1.948.375a.5.5 0 0 1-.186-.982l1.949-.375a.513.513 0 0 1 .093-.01zm25.411.419c.06 0 .12.01.178.033.454.175.91.362 1.368.563l.488.218c.25.114.36.41.248.661a.496.496 0 0 1-.655.251l-.48-.214a34.06 34.06 0 0 0-1.324-.545.501.501 0 0 1 .177-.967zm-29.31.324a.501.501 0 0 1 .088.992c-.656.12-1.31.237-1.962.346a.492.492 0 0 1-.57-.411.5.5 0 0 1 .407-.575c.648-.109 1.297-.224 1.947-.344a.558.558 0 0 1 .09-.008zm-17.696.264c.042 0 .084.005.127.016a26.865 26.865 0 0 0 1.897.432c.27.05.447.311.396.583a.497.497 0 0 1-.578.4 27.037 27.037 0 0 1-1.969-.447.5.5 0 0 1 .127-.984zm13.78.388c.243 0 .455.18.49.43a.5.5 0 0 1-.42.566c-.663.095-1.325.18-1.986.252a.501.501 0 0 1-.107-.994c.65-.07 1.3-.155 1.953-.249a.578.578 0 0 1 .07-.005zm-9.886.343a.51.51 0 0 1 .055.003c.625.07 1.278.12 1.944.148a.5.5 0 0 1 .474.521c-.011.275-.197.482-.517.479a30.05 30.05 0 0 1-2.01-.154.5.5 0 0 1-.438-.551.498.498 0 0 1 .492-.446zm5.943.086c.259 0 .477.202.494.467a.498.498 0 0 1-.462.532c-.67.045-1.338.076-2.005.088-.261-.022-.5-.215-.504-.491a.498.498 0 0 1 .487-.509c.65-.012 1.303-.041 1.956-.086h.034zm40.787.23a.49.49 0 0 1 .225.054c.611.314 1.2.638 1.765.969.237.14.317.445.18.684a.494.494 0 0 1-.679.181 34.652 34.652 0 0 0-1.716-.943.501.501 0 0 1 .225-.945zm3.425 2.011c.094 0 .19.028.274.084.566.38 1.118.778 1.64 1.182a.503.503 0 0 1 .092.701.494.494 0 0 1-.696.092 29.676 29.676 0 0 0-1.586-1.143.503.503 0 0 1-.137-.693.494.494 0 0 1 .413-.223zm3.139 2.437c.117 0 .235.042.33.127.507.456.996.933 1.454 1.42.188.2.18.516-.019.706a.492.492 0 0 1-.701-.019 23.593 23.593 0 0 0-1.395-1.361.503.503 0 0 1-.04-.706.494.494 0 0 1 .37-.167zm2.722 2.9c.147 0 .292.066.39.19.423.54.82 1.1 1.18 1.667a.502.502 0 0 1-.15.69.49.49 0 0 1-.686-.151 19.782 19.782 0 0 0-1.122-1.585.503.503 0 0 1 .081-.703.492.492 0 0 1 .307-.108zm2.13 3.363c.183 0 .358.102.445.277.305.614.576 1.249.807 1.887a.496.496 0 1 1-.932.344 17.201 17.201 0 0 0-.762-1.784.502.502 0 0 1 .443-.724zm1.358 3.748c.224 0 .428.154.481.384.157.668.276 1.35.353 2.028a.5.5 0 0 1-.436.553.498.498 0 0 1-.549-.44 16.65 16.65 0 0 0-.332-1.91.5.5 0 0 1 .483-.615zm.45 3.964h.002c.274 0 .495.226.493.502-.003.681-.047 1.371-.13 2.053a.49.49 0 0 1-.552.436.498.498 0 0 1-.431-.557c.077-.644.118-1.295.122-1.938a.498.498 0 0 1 .495-.496zm-.48 3.96a.5.5 0 0 1 .483.616c-.156.66-.352 1.322-.582 1.968a.495.495 0 0 1-.634.302.502.502 0 0 1-.3-.64c.219-.612.404-1.238.552-1.862a.497.497 0 0 1 .482-.384zm-1.331 3.758a.503.503 0 0 1 .447.717 20.63 20.63 0 0 1-.972 1.8.492.492 0 0 1-.682.166.503.503 0 0 1-.165-.688c.338-.557.65-1.133.925-1.712a.496.496 0 0 1 .447-.283zm-45.593.965c.124 0 .248.047.345.14.479.467.958.917 1.438 1.35.204.184.221.5.038.706a.492.492 0 0 1-.7.038c-.488-.441-.977-.899-1.465-1.375a.503.503 0 0 1-.012-.707.49.49 0 0 1 .357-.152zm43.53 2.444a.503.503 0 0 1 .396.8 22.07 22.07 0 0 1-1.295 1.576.494.494 0 0 1-.7.034.503.503 0 0 1-.033-.708 20.93 20.93 0 0 0 1.236-1.502c.097-.131.246-.2.396-.2zm-40.579.227a.49.49 0 0 1 .317.115c.512.43 1.023.842 1.534 1.235a.504.504 0 0 1 .093.702.493.493 0 0 1-.696.093 50.818 50.818 0 0 1-1.564-1.26.503.503 0 0 1-.065-.704c.099-.12.239-.181.381-.181zm3.15 2.429c.098 0 .197.029.283.09.546.384 1.089.75 1.632 1.095.232.149.3.457.154.69a.497.497 0 0 1-.685.156 45.3 45.3 0 0 1-1.668-1.121.503.503 0 0 1-.123-.697.494.494 0 0 1 .407-.213zm34.764.3c.134 0 .269.054.366.163.185.203.17.52-.031.706-.497.458-1.02.899-1.553 1.311a.493.493 0 0 1-.695-.094.503.503 0 0 1 .092-.7c.51-.394 1.01-.816 1.487-1.256a.491.491 0 0 1 .334-.13zm-31.414 1.837c.084 0 .168.02.244.065.577.33 1.155.64 1.729.928a.502.502 0 0 1 .222.671.493.493 0 0 1-.666.224c-.59-.297-1.18-.614-1.773-.952a.503.503 0 0 1-.188-.682.495.495 0 0 1 .432-.254zm28.27.59c.163 0 .323.082.418.232a.503.503 0 0 1-.152.69c-.566.363-1.156.707-1.754 1.022a.495.495 0 0 1-.669-.212.502.502 0 0 1 .21-.675c.573-.3 1.138-.63 1.68-.979a.493.493 0 0 1 .266-.078zM44.971 69.02c.066 0 .133.013.197.041.607.265 1.213.507 1.815.728a.5.5 0 0 1 .296.64.494.494 0 0 1-.635.3 33.65 33.65 0 0 1-1.87-.75.501.501 0 0 1 .197-.959zm21.21.655a.5.5 0 0 1 .191.961c-.624.263-1.263.502-1.897.709a.495.495 0 0 1-.624-.322.501.501 0 0 1 .319-.63 23.585 23.585 0 0 0 1.82-.68.49.49 0 0 1 .191-.038zm-17.484.708a.5.5 0 0 1 .14.02c.63.187 1.265.353 1.887.492a.5.5 0 0 1-.216.977c-.644-.144-1.3-.316-1.952-.51a.5.5 0 0 1 .14-.98zm13.717.522a.5.5 0 0 1 .113.986c-.655.157-1.323.287-1.986.387a.5.5 0 1 1-.148-.988 24.054 24.054 0 0 0 1.907-.371.458.458 0 0 1 .114-.014zm-9.85.35c.025 0 .051.002.076.006.649.1 1.3.176 1.934.227a.498.498 0 0 1 .455.537.501.501 0 0 1-.533.46 27.27 27.27 0 0 1-2.006-.236.5.5 0 0 1 .075-.994zm5.934.25c.257 0 .475.202.493.465a.5.5 0 0 1-.459.535c-.62.045-1.252.067-1.878.067h-.138a.498.498 0 0 1-.496-.5c0-.277.222-.5.496-.5h.148c.6 0 1.203-.022 1.798-.065l.036-.001z"/><path id="c" d="M2.667 5.334a2.667 2.667 0 1 0 0-5.334 2.667 2.667 0 0 0 0 5.334z"/><path id="d" d="M4.834 2.667c0 1.197-.97 2.167-2.167 2.167v1a3.167 3.167 0 0 0 3.167-3.167h-1zM2.667 4.834A2.167 2.167 0 0 1 .5 2.667h-1a3.167 3.167 0 0 0 3.167 3.167v-1zM.5 2.667C.5 1.47 1.47.5 2.667.5v-1A3.167 3.167 0 0 0-.5 2.667h1zM2.667.5c1.197 0 2.167.97 2.167 2.167h1A3.167 3.167 0 0 0 2.667-.5v1z"/><path id="e" d="M1.872 3.744a1.872 1.872 0 1 0 0-3.744 1.872 1.872 0 0 0 0 3.744z"/><path id="f" d="M3.244 1.872c0 .758-.614 1.372-1.372 1.372v1a2.372 2.372 0 0 0 2.372-2.372h-1zM1.872 3.244A1.372 1.372 0 0 1 .5 1.872h-1a2.372 2.372 0 0 0 2.372 2.372v-1zM.5 1.872C.5 1.114 1.114.5 1.872.5v-1A2.372 2.372 0 0 0-.5 1.872h1zM1.872.5c.758 0 1.372.614 1.372 1.372h1A2.372 2.372 0 0 0 1.872-.5v1z"/><path id="g" d="M1.16 2.32a1.16 1.16 0 1 0 0-2.32 1.16 1.16 0 0 0 0 2.32z"/><path id="h" d="M1.82 1.16a.66.66 0 0 1-.66.66v1a1.66 1.66 0 0 0 1.66-1.66h-1zm-.66.66a.66.66 0 0 1-.66-.66h-1c0 .917.743 1.66 1.66 1.66v-1zM.5 1.16A.66.66 0 0 1 1.16.5v-1A1.66 1.66 0 0 0-.5 1.16h1zM1.16.5a.66.66 0 0 1 .66.66h1A1.66 1.66 0 0 0 1.16-.5v1z"/><path id="i" d="M.823 1.646A.823.823 0 1 0 .823 0a.823.823 0 0 0 0 1.646z"/><path id="j" d="M.657 1.313A.657.657 0 1 0 .657 0a.657.657 0 0 0 0 1.313z"/><path id="k" d="M.5 0a.5.5 0 0 0-1 0h1zm-1 3.13a.5.5 0 1 0 1 0h-1zM-.5 0v3.13h1V0h-1z"/><path id="l" d="M3.13.5a.5.5 0 1 0 0-1v1zM0-.5a.5.5 0 0 0 0 1v-1zm3.13 0H0v1h3.13v-1z"/><path id="m" d="M0 8.887V0l15.922 10.39a.997.997 0 0 0 1.093 0L32.937 0v8.887l-16.469 9.995L0 8.887z"/><path id="n" d="M2 3.693l14.375 9.38a1.998 1.998 0 0 0 2.186 0l14.375-9.38v6.477L17.468 19.56 2 10.17V3.693zM34.936 0L17.468 11.398 0 0v11.296l17.468 10.602 17.468-10.602V0z"/><path id="o" d="M26.443 32.886c-.18 0-.36-.05-.52-.146L.482 17.298A1 1 0 0 1 0 16.443v-4a1 1 0 0 1 1-1h6.31L25.925.146a1.002 1.002 0 0 1 1.038 0l18.613 11.297h6.31a1 1 0 0 1 1 1v4a1 1 0 0 1-.48.855L26.962 32.74c-.16.097-.34.146-.52.146z"/><path id="p" d="M27.443 2l18.852 11.443h6.59v4L27.444 32.886 2 17.443v-4h6.59L27.443 2zm0-2c-.36 0-.72.097-1.038.29L8.031 11.443H2a2 2 0 0 0-2 2v4a2 2 0 0 0 .962 1.71l25.443 15.442a1.999 1.999 0 0 0 2.075 0l25.443-15.442a2 2 0 0 0 .963-1.71v-4a2 2 0 0 0-2-2h-6.031L28.48.29A1.998 1.998 0 0 0 27.442 0z"/><path id="q" d="M26.443 32.886c-.18 0-.36-.05-.52-.146L.482 17.298a1 1 0 0 1 0-1.71L25.924.147a1.002 1.002 0 0 1 1.038 0l25.443 15.443a.999.999 0 0 1 0 1.709L26.962 32.74c-.16.097-.34.146-.52.146z"/><path id="r" d="M27.443 2l25.443 15.443-25.443 15.443L2 17.443 27.443 2zm0-2c-.36 0-.72.097-1.038.29L.962 15.733a2 2 0 0 0 0 3.42l25.443 15.442a1.999 1.999 0 0 0 2.075 0l25.443-15.442a2 2 0 0 0 0-3.42L28.48.29A1.998 1.998 0 0 0 27.444 0z"/><path id="s" d="M25.443 14.901L.893 0 0 .542l25.443 15.443L50.886.542 49.993 0l-24.55 14.901z"/><path id="t" d="M13.58.851A1 1 0 0 0 12.533-.85L13.58.85zM0 8.044l-.525-.85a1 1 0 0 0-.475.85h1zm-1 19.584a1 1 0 1 0 2 0h-2zM12.532-.852L-.525 7.194l1.05 1.703L13.58.85 12.53-.85zM-1 8.045v19.584h2V8.044h-2z"/><path id="u" d="M3.156 8.302c-.124 0-.248-.024-.365-.07A4.364 4.364 0 0 1 0 4.15 4.361 4.361 0 0 1 2.792.07a1 1 0 0 1 .73 0 4.361 4.361 0 0 1 2.79 4.08 4.365 4.365 0 0 1-2.79 4.082c-.118.046-.242.07-.366.07z"/><path id="v" d="M4.156 2a3.385 3.385 0 0 1 2.157 3.15 3.385 3.385 0 0 1-2.157 3.151A3.385 3.385 0 0 1 2 5.151C2 3.715 2.896 2.494 4.156 2zm0-2a2 2 0 0 0-.73.138A5.357 5.357 0 0 0 0 5.151a5.357 5.357 0 0 0 3.426 5.012 2 2 0 0 0 1.46 0 5.357 5.357 0 0 0 3.426-5.012A5.357 5.357 0 0 0 4.888.138 2 2 0 0 0 4.157 0z"/></defs></svg>