<svg width="22" height="21" viewBox="0 0 22 21" xmlns="http://www.w3.org/2000/svg" xmlns:xlink="http://www.w3.org/1999/xlink"><title>Group 67</title><desc>Created using Figma</desc><use xlink:href="#a" transform="translate(1 10.565)" fill="#2196F3"/><use xlink:href="#b" transform="translate(1 1)" fill="#2196F3"/><defs><path id="a" d="M0-.5a.5.5 0 0 0 0 1v-1zm20 1a.5.5 0 0 0 0-1v1zM0 .5h20v-1H0v1z"/><path id="b" d="M11.2.375a.5.5 0 0 0-.66-.75l.66.75zM0 9.565l-.33-.375a.5.5 0 0 0 0 .75L0 9.566zm10.54 9.94a.5.5 0 1 0 .66-.75l-.66.75zm0-19.88L-.33 9.19l.66.75L11.2.376l-.66-.75zM-.33 9.94l10.87 9.565.66-.75L.33 9.19l-.66.75z"/></defs></svg>