<svg width="39" height="50" viewBox="0 0 39 50" xmlns="http://www.w3.org/2000/svg"><title>Arrow</title><path d="M8.395 43.731c2.57-1.24 18.581-8.331 26.174-32.43 7.593-24.097 1.545-1.113 1.545-1.113-8.85 27.035-18.689 30.377-25.268 34.762-1.009.673-2.444 1.181-1.113 1.889.625.284 5.218 1.402 4.586 2.388-.668 1.043-5.02.083-8.254-.025-2.972-.099-5.29.41-5.626-.13-.346-.557 2.373-2.259 4.005-4.718 1.67-2.517 2.695-5.479 3.28-5.68 2.218-.761-.658 4.093.671 5.057z" fill="#FFF" fill-rule="evenodd"/></svg>