<svg width="80" height="80" viewBox="0 0 80 80" xmlns="http://www.w3.org/2000/svg" xmlns:xlink="http://www.w3.org/1999/xlink"><title>No</title><desc>Created using Figma</desc><use xlink:href="#a" transform="translate(22.837 30.674)" fill="#B0BEC5"/><use xlink:href="#b" transform="translate(24.755 23.006)" fill="#B0BEC5"/><use xlink:href="#c" transform="translate(25.997 19.266)" fill="#B0BEC5"/><use xlink:href="#d" transform="translate(29.118 12.081)" fill="#B0BEC5"/><use xlink:href="#e" transform="translate(22.145 34.576)" fill="#B0BEC5"/><use xlink:href="#f" transform="translate(23.705 26.814)" fill="#B0BEC5"/><use xlink:href="#g" transform="translate(21.266 54.384)" fill="#B0BEC5"/><use xlink:href="#h" transform="translate(21.625 38.511)" fill="#B0BEC5"/><use xlink:href="#i" transform="translate(21.64 58.337)" fill="#B0BEC5"/><use xlink:href="#j" transform="translate(21.282 42.466)" fill="#B0BEC5"/><use xlink:href="#k" transform="translate(21.12 50.413)" fill="#B0BEC5"/><use xlink:href="#l" transform="translate(57.838 25.855)" fill="#B0BEC5"/><use xlink:href="#m" transform="translate(56.988 17.965)" fill="#B0BEC5"/><use xlink:href="#n" transform="translate(56.153 14.094)" fill="#B0BEC5"/><use xlink:href="#o" transform="translate(22.27 62.251)" fill="#B0BEC5"/><use xlink:href="#p" transform="translate(54.973 10.327)" fill="#B0BEC5"/><use xlink:href="#q" transform="translate(35.869 2.861)" fill="#B0BEC5"/><use xlink:href="#r" transform="translate(57.537 21.895)" fill="#B0BEC5"/><use xlink:href="#s" transform="translate(48.253 1.077)" fill="#B0BEC5"/><use xlink:href="#t" transform="translate(21.125 46.436)" fill="#B0BEC5"/><use xlink:href="#u" transform="translate(55.033 49.537)" fill="#B0BEC5"/><use xlink:href="#v" transform="translate(42.399)" fill="#B0BEC5"/><use xlink:href="#w" transform="translate(53.925 53.382)" fill="#B0BEC5"/><use xlink:href="#x" transform="translate(51.109 60.887)" fill="#B0BEC5"/><use xlink:href="#y" transform="translate(47.346 67.995)" fill="#B0BEC5"/><use xlink:href="#z" transform="translate(49.361 64.506)" fill="#B0BEC5"/><use xlink:href="#A" transform="translate(52.623 57.172)" fill="#B0BEC5"/><use xlink:href="#B" transform="translate(55.955 45.647)" fill="#B0BEC5"/><use xlink:href="#C" transform="translate(57.884 29.83)" fill="#B0BEC5"/><use xlink:href="#D" transform="translate(57.67 33.805)" fill="#B0BEC5"/><use xlink:href="#E" transform="translate(57.273 37.772)" fill="#B0BEC5"/><use xlink:href="#F" transform="translate(56.7 41.721)" fill="#B0BEC5"/><use xlink:href="#G" transform="translate(23.202 66.097)" fill="#B0BEC5"/><use xlink:href="#H" transform="translate(31.817 78.457)" fill="#B0BEC5"/><use xlink:href="#I" transform="translate(31.048 8.715)" fill="#B0BEC5"/><use xlink:href="#J" transform="translate(35.504 78.623)" fill="#B0BEC5"/><use xlink:href="#K" transform="translate(28.674 76.35)" fill="#B0BEC5"/><use xlink:href="#L" transform="translate(33.278 5.592)" fill="#B0BEC5"/><use xlink:href="#M" transform="translate(24.504 69.82)" fill="#B0BEC5"/><use xlink:href="#N" transform="translate(27.444 15.614)" fill="#B0BEC5"/><use xlink:href="#O" transform="translate(26.279 73.313)" fill="#B0BEC5"/><use xlink:href="#P" transform="translate(38.898 .819)" fill="#B0BEC5"/><use xlink:href="#Q" transform="translate(42.298 74.323)" fill="#B0BEC5"/><use xlink:href="#R" transform="translate(39.122 76.885)" fill="#B0BEC5"/><use xlink:href="#S" transform="translate(45.013 71.3)" fill="#B0BEC5"/><use xlink:href="#T" transform="translate(51.167 3.536)" fill="#B0BEC5"/><g><use xlink:href="#U" transform="translate(4.889 54.479)" fill="#FFCA28"/><use xlink:href="#V" transform="translate(7.086 32.041)" fill="#FFCA28"/><use xlink:href="#W" transform="translate(20.396 24.015)" fill="#FFCA28"/><use xlink:href="#X" transform="translate(23.656 59.582)" fill="#FFCA28"/><use xlink:href="#Y" transform="translate(24.045 22.542)" fill="#FFCA28"/><use xlink:href="#Z" transform="translate(15.785 58.729)" fill="#FFCA28"/><use xlink:href="#aa" transform="translate(19.701 59.305)" fill="#FFCA28"/><use xlink:href="#ab" transform="translate(16.844 25.685)" fill="#FFCA28"/><use xlink:href="#ac" transform="translate(.358 48.474)" fill="#FFCA28"/><use xlink:href="#ad" transform="translate(63.463 18.445)" fill="#FFCA28"/><use xlink:href="#ae" transform="translate(67.292 19.403)" fill="#FFCA28"/><use xlink:href="#af" transform="translate(4.33 34.692)" fill="#FFCA28"/><use xlink:href="#ag" transform="translate(77.061 25.475)" fill="#FFCA28"/><use xlink:href="#ah" transform="translate(78.715 28.876)" fill="#FFCA28"/><use xlink:href="#ai" transform="translate(10.144 29.677)" fill="#FFCA28"/><use xlink:href="#aj" transform="translate(13.414 27.566)" fill="#FFCA28"/><use xlink:href="#ak" transform="translate(2.093 51.839)" fill="#FFCA28"/><use xlink:href="#al" transform="translate(.457 41.022)" fill="#FFCA28"/><use xlink:href="#am" transform="translate(0 44.706)" fill="#FFCA28"/><use xlink:href="#an" transform="translate(27.625 59.517)" fill="#FFCA28"/><use xlink:href="#ao" transform="translate(2.03 37.673)" fill="#FFCA28"/><use xlink:href="#ap" transform="translate(59.552 17.849)" fill="#FFCA28"/><use xlink:href="#aq" transform="translate(58.396 51.551)" fill="#FFCA28"/><use xlink:href="#ar" transform="translate(61.955 49.683)" fill="#FFCA28"/><use xlink:href="#as" transform="translate(51.008 54.67)" fill="#FFCA28"/><use xlink:href="#at" transform="translate(51.145 17.507)" fill="#FFCA28"/><use xlink:href="#au" transform="translate(65.393 47.587)" fill="#FFCA28"/><use xlink:href="#av" transform="translate(55.598 17.555)" fill="#FFCA28"/><use xlink:href="#aw" transform="translate(54.74 53.209)" fill="#FFCA28"/><use xlink:href="#ax" transform="translate(74.315 22.789)" fill="#FFCA28"/><use xlink:href="#ay" transform="translate(76.858 36.321)" fill="#FFCA28"/><use xlink:href="#az" transform="translate(78.487 32.653)" fill="#FFCA28"/><use xlink:href="#aA" transform="translate(70.958 20.81)" fill="#FFCA28"/><use xlink:href="#aB" transform="translate(68.674 45.24)" fill="#FFCA28"/><use xlink:href="#aC" transform="translate(71.747 42.607)" fill="#FFCA28"/><use xlink:href="#aD" transform="translate(74.525 39.647)" fill="#FFCA28"/><use xlink:href="#aE" transform="translate(31.568 20.16)" fill="#FFCA28"/><use xlink:href="#aF" transform="translate(47.179 17.625)" fill="#FFCA28"/><use xlink:href="#aG" transform="translate(39.468 57.938)" fill="#FFCA28"/><use xlink:href="#aH" transform="translate(43.229 17.963)" fill="#FFCA28"/><use xlink:href="#aI" transform="translate(39.305 18.505)" fill="#FFCA28"/><use xlink:href="#aJ" transform="translate(35.416 19.24)" fill="#FFCA28"/><use xlink:href="#aK" transform="translate(35.542 58.661)" fill="#FFCA28"/><use xlink:href="#aL" transform="translate(47.211 55.941)" fill="#FFCA28"/><use xlink:href="#aM" transform="translate(43.36 57.03)" fill="#FFCA28"/><use xlink:href="#aN" transform="translate(31.591 59.192)" fill="#FFCA28"/><use xlink:href="#aO" transform="translate(27.775 21.259)" fill="#FFCA28"/><use xlink:href="#aP" transform="translate(8.27 55.095)" fill="#FFCA28"/></g><g><use xlink:href="#aQ" transform="translate(67.87 36.579)" fill="#FFCA28"/></g><g transform="translate(-520 -293)"><use xlink:href="#aR" transform="translate(526.076 302.422)" fill="#FFCA28"/></g><g transform="translate(-520 -293)"><use xlink:href="#aS" transform="translate(584.272 359.327)" fill="#B0BEC5"/></g><g><use xlink:href="#aT" transform="translate(19.529 18.533)" fill="#78909C"/><use xlink:href="#aU" transform="translate(18.654 17.696)" fill="#0D47A1"/><use xlink:href="#aV" transform="translate(19.517 18.396)" fill="#90A4AE"/><use xlink:href="#aW" transform="translate(18.654 17.559)" fill="#0D47A1"/><use xlink:href="#aX" transform="translate(34.14 59.02)" fill="#78909C"/><use xlink:href="#aY" transform="translate(32.957 57.887)" fill="#0D47A1"/><g><use xlink:href="#aZ" transform="translate(31.686 57.923)" fill="#90A4AE"/><use xlink:href="#ba" transform="translate(30.849 57.085)" fill="#0D47A1"/></g><g><use xlink:href="#bb" transform="translate(32.518 58.768)" fill="#B0BEC5"/></g><g><use xlink:href="#bc" transform="translate(32.639 28.502)" fill="#B0BEC5"/><use xlink:href="#bd" transform="translate(20.428 19.243)" fill="#B0BEC5"/></g></g><defs><path id="a" d="M.402 2.937a.498.498 0 0 0 .589-.392c.13-.651.266-1.297.409-1.936A.5.5 0 0 0 .424.391 88.13 88.13 0 0 0 .01 2.35a.5.5 0 0 0 .392.588z"/><path id="b" d="M.356 2.876A.5.5 0 0 0 .98 2.54c.191-.637.389-1.265.592-1.884a.5.5 0 0 0-.95-.314 75.8 75.8 0 0 0-.124.382L.494.734.492.74.49.748.488.754.485.761.483.77.48.775a.63.63 0 0 1-.003.01L.477.788.473.801v.001c-.11.34-.218.682-.323 1.027v.002l-.01.029-.003.01v.004a77.78 77.78 0 0 0-.116.38.5.5 0 0 0 .335.622z"/><path id="c" d="M.331 2.832a.499.499 0 0 0 .64-.302c.224-.626.455-1.242.692-1.847A.5.5 0 0 0 .73.318C.53.836.331 1.361.137 1.894l-.002.007-.003.007a.5.5 0 0 0 .2.924z"/><path id="d" d="M.274 2.696a.498.498 0 0 0 .672-.219c.3-.59.61-1.173.922-1.733A.5.5 0 0 0 .995.256l-.02.036-.005.01-.002.003-.004.007-.007.012v.001L.95.337v.001a52.045 52.045 0 0 0-.83 1.557L.118 1.9a.457.457 0 0 1-.004.008l-.003.006-.002.004-.015.03c-.014.025-.027.052-.04.078a.5.5 0 0 0 .22.671z"/><path id="e" d="M.424 2.958a.5.5 0 0 0 .57-.418A89.69 89.69 0 0 1 1.317.587.5.5 0 0 0 .332.413v.003L.327.44v.006L.322.473v.002c-.053.296-.103.593-.153.89l-.005.03v.003l-.005.028a.11.11 0 0 1 0 .004l-.005.026v.006l-.005.024-.001.008-.004.022-.001.01-.003.017-.003.016-.001.011-.004.021v.006l-.005.026c-.042.255-.082.51-.121.767a.5.5 0 0 0 .418.568z"/><path id="f" d="M.38 2.91a.501.501 0 0 0 .606-.365c.16-.645.326-1.282.498-1.913A.5.5 0 0 0 .52.367L.484.5.482.506l-.005.02-.005.018-.003.009a3.099 3.099 0 0 0-.006.022L.462.581.455.606.454.609c-.127.47-.25.943-.37 1.42v.001l-.007.027-.002.005-.006.024-.002.008-.005.021-.003.013-.004.016-.004.016a.341.341 0 0 1-.002.009l-.035.137a.5.5 0 0 0 .366.604z"/><path id="g" d="M.703 2.977a.5.5 0 0 0 .451-.544C1.094 1.787 1.042 1.132 1 .468a.5.5 0 1 0-.998.064L.026.91v.005l.001.009v.008A.244.244 0 0 0 .03.948v.004A.592.592 0 0 1 .03.966c.037.513.078 1.02.125 1.522l.001.013v.002l.002.012v.012a.5.5 0 0 0 .545.45z"/><path id="h" d="M.446 2.973a.5.5 0 0 0 .551-.443c.071-.651.15-1.306.237-1.964A.5.5 0 0 0 .242.435L.234.496v.002L.23.526V.53a3.902 3.902 0 0 0-.004.027v.006L.222.587v.008L.218.618v.009L.213.649v.01L.21.68.21.692.207.71.205.723.203.738.201.755.199.768.197.787.195.799l-.002.02L.19.83.19.85.187.863l-.002.02-.002.01-.002.021-.002.01-.002.021-.002.011-.002.02A.887.887 0 0 1 .17.987l-.002.016-.002.016-.001.013-.003.019-.001.012c0 .007-.002.013-.003.02v.01l-.004.022a.63.63 0 0 0 0 .01c-.002.007-.003.014-.003.022l-.002.009a2.706 2.706 0 0 0-.002.022l-.001.009-.003.023-.001.007a24.028 24.028 0 0 1-.004.03l-.003.027v.004l-.004.027v.003C.088 1.67.046 2.031.006 2.39v.001c0 .01-.002.02-.003.029v.002a.5.5 0 0 0 .443.551z"/><path id="i" d="M.86 2.958a.5.5 0 0 0 .415-.573A58.47 58.47 0 0 1 .996.438.5.5 0 0 0 .004.56c.01.083.02.166.032.248v.01l.002.009v.005A.647.647 0 0 1 .04.847l.002.014c.066.501.137.996.214 1.485l.002.014v.002l.007.043.001.007.001.007a.396.396 0 0 1 .002.013l.002.009v.004l.016.1a.5.5 0 0 0 .573.413z"/><path id="j" d="M.468 2.983l.033.001a.5.5 0 0 0 .498-.468c.042-.653.09-1.311.148-1.973A.5.5 0 0 0 .151.456L.139.593v.002L.136.623v.01l-.002.02-.002.018v.012L.13.703l-.001.01a25.942 25.942 0 0 1-.003.031L.124.768v.006L.122.8v.004L.118.832v.003L.116.864v.001c-.025.302-.048.604-.069.904v.001l-.002.03v.002l-.002.028v.005L.04 1.86v.007l-.003.024v.008l-.002.022v.01l-.002.018v.015l-.002.014v.019l-.001.006-.002.026v.001c-.01.143-.02.283-.028.425a.5.5 0 0 0 .467.528z"/><path id="k" d="M.546 2.987h.019a.5.5 0 0 0 .481-.518C1.022 1.819 1.006 1.16 1 .495A.5.5 0 0 0 .5 0H.495A.5.5 0 0 0 0 .504c.003.252.006.503.011.752v.025l.001.008v.007a.49.49 0 0 1 0 .014v.015l.001.012v.017c.009.387.02.77.034 1.152a.5.5 0 0 0 .499.481z"/><path id="l" d="M.5 0H.477a.5.5 0 0 0-.475.524c.03.65.053 1.308.066 1.973a.5.5 0 0 0 .5.49h.01a.5.5 0 0 0 .49-.516v-.008-.007a.32.32 0 0 1 0-.008V2.44v-.006a.64.64 0 0 1-.001-.011V2.42v-.014A74.128 74.128 0 0 0 1 .476.5.5 0 0 0 .5 0z"/><path id="m" d="M.414.008a.5.5 0 0 0-.406.579c.11.633.213 1.287.304 1.942a.5.5 0 1 0 .99-.137 59.654 59.654 0 0 0-.071-.5v-.003a.843.843 0 0 0-.002-.013v-.002a5.35 5.35 0 0 0-.005-.03c0-.001 0 0 0 0a3.38 3.38 0 0 0-.003-.02l-.001-.009-.001-.005-.002-.01v-.005l-.002-.01V1.78l-.002-.011-.002-.01v-.006l-.002-.008v-.006l-.002-.009v-.005l-.002-.009v-.004l-.006-.035-.002-.013v-.001a.582.582 0 0 1-.002-.012V1.65C1.13 1.232 1.064.82.992.412A.5.5 0 0 0 .414.008z"/><path id="n" d="M.016.626c.16.617.313 1.259.452 1.907a.5.5 0 0 0 .978-.209 49.187 49.187 0 0 0-.097-.443l-.001-.004a.297.297 0 0 0-.002-.008l-.001-.006-.002-.008-.002-.008-.002-.01a.53.53 0 0 1-.003-.013l-.002-.01-.001-.004-.007-.03-.003-.014v-.002C1.214 1.293 1.102.83.983.374a.5.5 0 1 0-.968.252z"/><path id="o" d="M1.411 2.318A48.258 48.258 0 0 1 .991.403.5.5 0 1 0 .01.598c.035.177.07.353.107.527v.001l.004.015.006.03v.002l.003.013v.003l.004.013v.001l.006.03v.002l.003.013v.002l.004.014.006.03v.003l.003.012v.003l.004.014.003.015v.003l.003.011v.004l.003.011.001.003.006.03v.002l.003.012.001.003.003.012v.002l.006.03.001.002.003.013v.001l.01.045v.002l.003.013v.001l.01.045v.002l.004.014.01.046c.067.305.137.607.21.905a.5.5 0 1 0 .971-.235z"/><path id="p" d="M.325.032a.5.5 0 0 0-.293.644c.22.59.432 1.209.63 1.84a.5.5 0 1 0 .954-.297A37.063 37.063 0 0 0 1.199.962L1.18.903a1.126 1.126 0 0 1-.005-.014c0-.001 0 0 0 0a4.668 4.668 0 0 0-.01-.029V.859L1.152.83V.83L1.148.817V.815l-.01-.027-.001-.003-.005-.012V.772L1.127.758V.757a.981.981 0 0 0-.005-.012V.742L1.115.73 1.112.714 1.11.713 1.106.7V.699A1.059 1.059 0 0 0 1.1.686V.684L1.095.672V.67l-.01-.026L1.084.64l-.01-.028A863.749 863.749 0 0 1 1.06.57L1.057.567a7.384 7.384 0 0 0-.004-.013L1.048.54V.54L1.043.527V.525a5.086 5.086 0 0 0-.01-.027V.497A44.048 44.048 0 0 0 .968.325.5.5 0 0 0 .325.032z"/><path id="q" d="M.5 2.303a.498.498 0 0 0 .35-.143c.469-.46.947-.887 1.42-1.271A.5.5 0 0 0 1.642.11a19.61 19.61 0 0 0-.485.407l-.02.018h-.001L1.13.54l-.002.002a.245.245 0 0 1-.005.004l-.002.002-.004.003a.09.09 0 0 0-.006.006l-.003.002-.003.003-.003.003-.003.002a.643.643 0 0 0-.007.006L1.09.575l-.005.004-.001.001-.005.004v.001L1.072.59h-.001A.5.5 0 0 0 .5 2.303z"/><path id="r" d="M.447.003a.5.5 0 0 0-.444.55C.07 1.198.13 1.852.18 2.515a.5.5 0 1 0 .997-.075l-.028-.362v-.002l-.001-.012a1.814 1.814 0 0 1-.001-.014l-.001-.009v-.005l-.001-.01v-.003A65.46 65.46 0 0 0 .996.445a.5.5 0 0 0-.55-.442z"/><path id="s" d="M.253.935c.503.286 1 .638 1.476 1.044a.498.498 0 0 0 .705-.055.5.5 0 0 0-.056-.705l-.002-.002-.003-.003-.003-.002-.003-.003-.003-.003a.502.502 0 0 1-.007-.005l-.002-.002-.004-.004-.002-.001-.004-.004-.002-.001a.317.317 0 0 0-.004-.004l-.002-.001-.005-.005-.006-.005A10.513 10.513 0 0 0 .746.064a.498.498 0 0 0-.68.189.5.5 0 0 0 .187.682z"/><path id="t" d="M.492 2.988H.5a.5.5 0 0 0 .5-.492c.01-.653.028-1.312.054-1.976A.5.5 0 1 0 .055.48c-.016.4-.029.797-.039 1.192v.032l-.001.029v.031l-.001.003v.031l-.001.027v.004l-.001.027v.038l-.001.024v.008L.01 1.95v.03l-.001.012a2.217 2.217 0 0 0 0 .03l-.001.02V2.083l-.001.019v.031l-.001.012v.031a76.77 76.77 0 0 1-.001.033v.015a1.673 1.673 0 0 0-.001.031v.031l-.001.017v.046l-.001.015v.049L0 2.425v.03a59.133 59.133 0 0 1 0 .026.5.5 0 0 0 .491.507z"/><path id="u" d="M1.1.014a.502.502 0 0 0-.603.37 83.762 83.762 0 0 1-.48 1.918.5.5 0 0 0 .967.255v-.002l.007-.026.001-.005L1 2.5 1 2.494l.007-.024.001-.006.006-.024.002-.005.006-.025.002-.005.006-.025.002-.006.006-.025.002-.006.006-.024.002-.007.006-.023.001-.006.007-.024.001-.006.006-.024.002-.005.006-.025.001-.005.007-.025.001-.004.007-.026v-.004l.008-.029v-.001l.008-.028v-.003l.007-.027.001-.003.007-.027v-.004l.008-.027v-.002l.008-.028v-.002A84.6 84.6 0 0 0 1.47.616.5.5 0 0 0 1.1.014z"/><path id="v" d="M4.771.353A8.328 8.328 0 0 0 3.725.11L3.697.106h-.001L3.689.105h-.001L3.669.1h-.003a.8.8 0 0 1-.005 0L3.658.1 3.653.099H3.65L3.642.096h-.004L3.634.096h-.005a3.1 3.1 0 0 0-.003-.001L3.62.094h-.003L3.61.091 3.6.091a.987.987 0 0 0-.01-.002H3.58L3.579.087 3.571.087 3.56.084 3.55.084 3.542.082l-.01-.001-.01-.001-.01-.002-.018-.002h-.001L3.474.073 3.455.071l-.02-.003-.019-.002-.019-.003-.01-.001-.01-.001L3.369.06l-.02-.003L3.33.055h-.001L3.31.053h-.002L3.292.05 3.28.05 3.272.049l-.01-.001-.01-.001-.01-.002h-.009l-.01-.001-.009-.001-.01-.001h-.001L3.195.04h-.001L3.186.04h-.003L3.176.038h-.002L3.167.038h-.003L3.156.037h-.002L3.148.036h-.004L3.137.035H3.13L3.125.033h-.007L3.114.032h-.008L3.099.031h-.004L3.09.03h-.008L3.08.03a.141.141 0 0 1-.007 0l-.01-.001H3.06L3.056.027h-.002L3.043.027h-.007L3.005.023A8.247 8.247 0 0 0 2.777.01a.497.497 0 0 0-.191.038A.497.497 0 0 0 2.37 0H2.35h-.011-.011-.004-.007-.007H2.29h-.015-.007-.003-.012H2.244L2.24.002H2.19v.001h-.014A8.845 8.845 0 0 0 .663.17L.657.171.65.173A8.559 8.559 0 0 1 .615.18H.609L.608.182.603.182H.6L.596.185H.592L.588.185a.1.1 0 0 1-.003.001H.58L.577.189H.574L.569.19H.567L.56.192.544.194.535.197.529.198H.528L.52.199.512.202A8.975 8.975 0 0 0 .388.23a.5.5 0 0 0 .223.975A7.915 7.915 0 0 1 2.372 1a.5.5 0 0 0 .19-.037.499.499 0 0 0 .19.047 7.344 7.344 0 0 1 1.73.3.5.5 0 0 0 .289-.957z"/><path id="w" d="M1.217.02a.501.501 0 0 0-.62.341 78.07 78.07 0 0 1-.573 1.891.5.5 0 0 0 .953.303c.2-.63.393-1.269.58-1.915a.5.5 0 0 0-.34-.62z"/><path id="x" d="M1.476.038A.498.498 0 0 0 .823.31a62.63 62.63 0 0 1-.779 1.81.5.5 0 0 0 .912.41c.27-.6.534-1.214.791-1.84a.5.5 0 0 0-.271-.652z"/><path id="y" d="M1.799.07a.498.498 0 0 0-.685.176C.777.816.43 1.374.082 1.906a.5.5 0 0 0 .836.549l.04-.06v-.002l.005-.007c0-.002.002-.003.003-.004l.004-.007a1.71 1.71 0 0 1 .006-.01l.003-.004.005-.008a.106.106 0 0 1 .003-.004l.007-.01.008-.013v-.001c.31-.477.615-.968.915-1.474l.024-.04.001-.002.008-.013.008-.012.001-.003.007-.01V.767l.008-.012c0-.001 0 0 0 0A.5.5 0 0 0 1.8.07z"/><path id="z" d="M1.626.051a.498.498 0 0 0-.67.229A53.436 53.436 0 0 1 .06 2.028a.5.5 0 0 0 .88.473 54.2 54.2 0 0 0 .915-1.78.5.5 0 0 0-.229-.67z"/><path id="A" d="M1.34.028a.497.497 0 0 0-.636.308 71.097 71.097 0 0 1-.672 1.855.5.5 0 0 0 .936.354c.16-.424.318-.852.472-1.286v-.001l.005-.013v-.002l.005-.012.001-.003.004-.01.001-.005.003-.009.004-.01.003-.008.004-.01v-.004l.005-.011v-.002l.005-.012.17-.484a.5.5 0 0 0-.31-.635z"/><path id="B" d="M.988.009a.501.501 0 0 0-.585.398 87.626 87.626 0 0 1-.392 1.939.5.5 0 1 0 .978.209c.139-.648.271-1.301.397-1.961A.5.5 0 0 0 .988.009z"/><path id="C" d="M.538 0H.535a.5.5 0 0 0-.5.498A79.712 79.712 0 0 1 0 2.473a.5.5 0 0 0 1 .031v-.01-.013l.001-.02V2.45l.001-.022V2.42l.001-.024v-.007l.001-.024v-.006-.024a78.505 78.505 0 0 0 .002-.038v-.025-.004l.001-.027v-.003l.001-.027v-.005l.003-.095v-.008-.02a.674.674 0 0 0 .002-.043v-.018-.013-.019l.001-.013v-.016-.016l.001-.015a1.784 1.784 0 0 0 0-.03l.001-.022V1.87l.001-.024v-.007-.024l.001-.007v-.025-.005l.001-.027v-.004-.028-.002l.001-.03c.008-.397.013-.792.016-1.184A.5.5 0 0 0 .538 0z"/><path id="D" d="M.658 0a.5.5 0 0 0-.526.472 84.824 84.824 0 0 1-.13 1.974.5.5 0 0 0 .997.078v-.002L1 2.493v-.002l.003-.03c.044-.586.083-1.169.116-1.748l.002-.03V.682l.001-.03V.65l.002-.029V.62l.002-.03V.589L1.128.56V.558L1.13.53V.527A.5.5 0 0 0 .658.001z"/><path id="E" d="M.77.003A.5.5 0 0 0 .223.45a88.746 88.746 0 0 1-.218 1.965.5.5 0 1 0 .992.123l.075-.624.004-.03v-.001l.003-.03v-.002l.004-.03V1.82l.003-.028v-.004l.004-.027v-.004l.003-.027v-.005l.004-.026v-.006L1.1 1.67l.001-.01.002-.02.002-.01.002-.02.001-.013.002-.017.002-.015.001-.015.003-.018V1.52c.002-.006.002-.014.003-.02l.001-.01.003-.023v-.008l.004-.027v-.004l.003-.03c.032-.284.061-.568.09-.85A.5.5 0 0 0 .77.003z"/><path id="F" d="M.881.005a.502.502 0 0 0-.568.423L.253.84c-.078.518-.16 1.033-.246 1.545a.5.5 0 0 0 .986.167 92.491 92.491 0 0 0 .062-.374l.001-.008.003-.013.002-.016.001-.007c.06-.372.12-.746.176-1.12v-.002L1.24.988 1.244.97l.06-.401A.499.499 0 0 0 .88.005z"/><path id="G" d="M1.572 2.218A37.54 37.54 0 0 1 .98.361a.5.5 0 0 0-.96.277c.045.157.091.313.139.468.004.014.008.03.013.043v.003l.003.01.006.019.001.003.003.009.001.005.003.007.003.012.002.005.003.009.001.005.003.01.001.004.004.012.001.004.004.01v.004l.01.028v.002l.009.029.005.015.009.03c.112.36.228.714.348 1.062l.005.014.01.028v.003l.005.012.005.014.001.003.004.01.001.005a.616.616 0 0 0 .004.012.5.5 0 1 0 .945-.329z"/><path id="H" d="M2.361.495A7.423 7.423 0 0 1 .687.037a.498.498 0 0 0-.65.276.5.5 0 0 0 .276.651L.32.967h.002L.327.97l.007.003c.003 0 .005.002.008.003a5 5 0 0 0 .043.017l.007.003L.4.998H.4l.006.003a.518.518 0 0 1 .007.003h.002l.005.003h.001l.006.002.002.001.005.002h.002l.006.003h.001l.006.003H.45l.006.002.001.001c.003 0 .005.002.007.003l.007.002.036.014h.001l.007.003.007.002.007.003H.53a.11.11 0 0 0 .005.003h.001l.006.002h.002l.005.003h.002l.005.002.002.001.005.002h.002l.005.003h.002l.006.002.002.001.005.002h.002l.005.003h.002l.006.002.037.014.007.002h.001l.006.003h.002l.005.002h.002l.005.003h.002l.006.002v.001a.167.167 0 0 1 .008.002l.006.003H.69l.005.002h.002l.005.003h.002l.006.002H.71l.006.003h.001l.007.002.044.016.007.002h.001l.006.002h.002l.006.003.007.002h.001l.006.003h.001l.006.002h.002l.006.003.007.002.007.002h.001l.007.003.08.026h.001l.007.002.007.003.008.002.007.002A8.33 8.33 0 0 0 2 1.45h.007l.008.002.008.002h.007l.076.014h.008v.001l.007.001h.002l.006.001h.002l.005.001h.002l.006.002h.007l.002.001.006.001h.001l.006.001h.002l.006.001h.002l.005.002h.008l.002.001h.005l.003.001.005.001h.002l.008.002a.5.5 0 0 0 .149-.99z"/><path id="I" d="M1.987.782A.5.5 0 0 0 1.16.218C.793.757.43 1.317.074 1.897a.5.5 0 0 0 .852.524c.347-.564.704-1.115 1.06-1.639z"/><path id="J" d="M2.353 0a.5.5 0 0 0-.15.023A8.46 8.46 0 0 1 .455.379a.5.5 0 0 0 .09.997 9.42 9.42 0 0 0 1.96-.399.5.5 0 0 0-.15-.977z"/><path id="K" d="M.848.141a.498.498 0 0 0-.707.01.5.5 0 0 0 .01.708c.28.27.564.522.855.756a.464.464 0 0 0 .006.005l.006.005a.365.365 0 0 0 .006.004l.006.005.001.001.005.004h.001a.245.245 0 0 0 .006.006l.005.004h.002l.004.004.001.001.005.004h.001l.005.005.002.001.004.004h.002l.004.004.003.003a.12.12 0 0 0 .003.002l.003.002.003.003.004.002.002.002.004.003.002.002a.192.192 0 0 0 .004.003l.002.002.004.003.002.002c.002 0 .003.002.005.003l.001.001.005.004.007.005a.497.497 0 0 0 1.26.279.5.5 0 0 0-.133-.695A10.555 10.555 0 0 1 .849.141z"/><path id="L" d="M2.075.124a.498.498 0 0 0-.706.047C.942.66.519 1.176.103 1.719a.5.5 0 0 0 .794.61c.402-.526.814-1.03 1.225-1.5a.5.5 0 0 0-.047-.705z"/><path id="M" d="M1.766 2.06C1.486 1.506 1.216.917.962.308a.5.5 0 0 0-.924.384c.138.33.279.65.424.966v.001l.013.027.013.027v.003l.013.025.001.003a1.502 1.502 0 0 1 .008.017l.004.008.001.003a1.184 1.184 0 0 0 .008.017l.003.007.003.006.004.01.003.005a.337.337 0 0 0 .003.007l.003.005.005.012.002.004.004.007.002.005.005.01c0 .003.002.004.003.006l.003.007.002.005a.728.728 0 0 1 .005.01l.003.006.003.006c0 .003.002.005.003.007l.004.009.003.006.003.006.005.01.002.006.003.006a.59.59 0 0 0 .003.006l.005.01.002.005.003.007.003.006.005.01.003.005.003.007.002.005a.539.539 0 0 0 .005.01l.003.006a.713.713 0 0 1 .006.012l.005.01.002.005.003.007.003.006.005.01.002.005.004.007.003.006.004.01.003.004c0 .003.002.005.003.008l.004.007.003.008.003.005.004.008.003.006.004.008.002.005a.749.749 0 0 0 .004.008l.004.008.003.006.003.006.004.008a4.47 4.47 0 0 1 .007.014l.002.005a.893.893 0 0 0 .005.01l.003.006a.59.59 0 0 1 .003.006l.003.006.004.009.003.006.003.007.003.005.005.01.003.006a.48.48 0 0 1 .003.006c0 .002.001.003.003.005l.004.01.003.006.003.006.004.007.004.008a.55.55 0 0 1 .003.007l.002.005a.433.433 0 0 1 .004.008l.004.007a.285.285 0 0 0 .003.006l.003.006.005.01.003.005a.41.41 0 0 1 .003.007l.002.004.007.013.001.003.004.007a1.817 1.817 0 0 0 .008.017l.001.003.005.008.008.018a.568.568 0 0 1 .005.009l.01.018.002.006a.5.5 0 0 0 .892-.452z"/><path id="N" d="M1.519.047A.498.498 0 0 0 .849.3L.845.31a.21.21 0 0 0-.002.005L.84.321.836.329.834.333l-.005.01-.001.003-.013.027v.001L.809.387A62.053 62.053 0 0 0 .04 2.119a.5.5 0 0 0 .92.393c.261-.613.528-1.213.801-1.8A.5.5 0 0 0 1.52.047z"/><path id="O" d="M.925.237a.5.5 0 0 0-.85.526c.208.335.422.66.64.97l.006.007a2.31 2.31 0 0 0 .015.022l.001.001.004.006.002.002.003.004.002.003c0 .002.002.003.003.004l.002.003.002.003.003.004.002.002.011.017.004.006.001.001a.376.376 0 0 1 .004.006h.001l.004.006v.001c.142.197.285.389.43.575a.5.5 0 1 0 .789-.616A17.55 17.55 0 0 1 .925.237z"/><path id="P" d="M.767 1.83a12.415 12.415 0 0 1 1.63-.872.5.5 0 0 0-.402-.916C1.405.301.817.616.233.985a.5.5 0 0 0 .534.846z"/><path id="Q" d="M1.911 0a.499.499 0 0 0-.36.154C1.094.63.63 1.076.17 1.48a.5.5 0 0 0 .659.752l.192-.17.002-.002.004-.003.002-.003a.119.119 0 0 0 .003-.003c.002 0 .003-.002.004-.003l.003-.002.004-.004.002-.002.006-.006.013-.011.001-.001c.337-.305.67-.626 1.003-.965l.026-.028.007-.006.001-.001.004-.005.003-.002a.382.382 0 0 0 .004-.005l.002-.001.005-.005a.297.297 0 0 0 .004-.005l.002-.002.005-.005.002-.002a.143.143 0 0 1 .004-.004L2.14.984 2.144.98l.001-.002.027-.027.1-.105A.5.5 0 0 0 1.913 0z"/><path id="R" d="M2.149 0c-.1 0-.2.03-.287.091C1.333.463.798.789.27 1.061a.5.5 0 0 0 .458.89A14.68 14.68 0 0 0 2.439.907.5.5 0 0 0 2.149 0z"/><path id="S" d="M1.71 0a.5.5 0 0 0-.404.205C.916.739.515 1.255.115 1.736a.5.5 0 0 0 .77.639c.301-.364.6-.741.895-1.132l.019-.024c0-.002 0-.002.002-.003l.007-.01.003-.004.006-.007c0-.002.002-.004.004-.005 0-.002.002-.004.004-.006l.008-.01A.5.5 0 0 0 1.71 0z"/><path id="T" d="M3.672 4.57a2.18 2.18 0 0 0 .893-1.755A2.19 2.19 0 0 0 2.377.627c-.34 0-.66.085-.947.224L1.086.42A14.887 14.887 0 0 0 .878.171a.499.499 0 0 0-.705-.05.5.5 0 0 0-.051.706c.18.207.357.428.532.655-.287.37-.465.829-.465 1.332a2.19 2.19 0 0 0 2.188 2.189c.134 0 .264-.017.391-.04.114.234.227.47.336.712a.5.5 0 1 0 .912-.41c-.11-.244-.23-.462-.344-.696zm-1.295-.567c-.04 0-.073-.018-.112-.022A1.178 1.178 0 0 1 1.19 2.815c0-.167.036-.325.098-.469.138-.32.418-.55.755-.65.108-.033.216-.069.335-.069a1.189 1.189 0 0 1 0 2.376z"/><path id="U" d="M2.387 1.114A17.983 17.983 0 0 1 .792.094a.498.498 0 0 0-.698.114.5.5 0 0 0 .114.698c.206.148.416.293.633.435l.052.034.012.008h.001l.012.008.001.001.052.033.002.002.01.006.003.002.01.007.002.001.012.008.027.017.012.008.003.001.01.007.003.001.01.007.002.002.013.007.039.025.001.001.012.007.002.002a1.206 1.206 0 0 1 .012.007l.053.033.013.008.001.001.012.008h.001c.214.133.433.263.656.39a.498.498 0 0 0 .682-.187.5.5 0 0 0-.187-.682z"/><path id="V" d="M2.385.184a.5.5 0 0 0-.703-.071A39.28 39.28 0 0 0 .164 1.417a.5.5 0 0 0 .672.741c.47-.425.967-.853 1.478-1.27a.5.5 0 0 0 .071-.704z"/><path id="W" d="M2.313 0a.498.498 0 0 0-.197.04C1.498.308.89.58.29.857a.5.5 0 0 0 .42.908c.591-.274 1.191-.542 1.801-.804A.5.5 0 0 0 2.313 0z"/><path id="X" d="M2.486.039A62.187 62.187 0 0 1 .5 0a.5.5 0 0 0-.018 1c.659.024 1.325.037 2 .04h.002A.5.5 0 0 0 2.486.038z"/><path id="Y" d="M2.356 0a.498.498 0 0 0-.18.034L2.16.04l-.01.004-.022.008-.006.002-.025.01h-.003l-.028.01-.001.001a77.88 77.88 0 0 0-.529.198l-.057.022h-.002l-.027.011-.003.001-.026.01-.003.001-.025.01a3.646 3.646 0 0 0-.028.01l-.007.003-.021.008-.008.003a2.672 2.672 0 0 1-.034.013L1.28.371a1.692 1.692 0 0 0-.048.019l-.007.002-.024.01h-.003l-.027.01v.001C.881.523.596.636.312.75a.5.5 0 0 0 .372.928A76.46 76.46 0 0 1 2.53.97.5.5 0 0 0 2.356 0z"/><path id="Z" d="M2.524.334A45.055 45.055 0 0 1 .594.01a.501.501 0 1 0-.188.983c.643.123 1.301.234 1.972.332a.5.5 0 0 0 .145-.99z"/><path id="aa" d="M2.51.174A54.196 54.196 0 0 1 .552.003a.5.5 0 0 0-.106.995 54.736 54.736 0 0 0 2.028.175.5.5 0 0 0 .034-.999z"/><path id="ab" d="M2.262 0a.498.498 0 0 0-.223.053l-.435.22H1.6L1.59.28l-.006.003-.007.003a.188.188 0 0 1-.014.007l-.006.004-.007.003-.006.003-.007.004-.007.003-.006.003-.007.004-.006.003-.044.022-.003.002a.734.734 0 0 1-.01.005l-.002.001-.01.005-.004.002-.01.005-.003.002-.009.005a.095.095 0 0 0-.004.002l-.01.004L1.4.376a.954.954 0 0 0-.01.005l-.062.032-.002.001-.01.005a.163.163 0 0 1-.004.002l-.009.005A.135.135 0 0 0 1.3.428l-.008.004-.005.003-.01.004-.002.002-.01.005-.003.002-.01.005h-.002L1.238.46h-.001L1.19.484a.397.397 0 0 0-.005.002L1.178.49l-.005.003-.008.004A.274.274 0 0 0 1.16.5l-.007.004-.005.003a.32.32 0 0 0-.008.004l-.006.003a.683.683 0 0 0-.007.003L1.12.521a.55.55 0 0 0-.006.003l-.01.005L1.1.531a.552.552 0 0 1-.01.005l-.003.002-.041.021a2.464 2.464 0 0 0-.014.007l-.001.001-.013.006c0 .001 0 0 0 0l-.014.008-.027.014L.7.74.605.79v.001L.592.797.588.8.58.804.575.806.566.811.562.814.554.818A7.122 7.122 0 0 0 .548.82L.542.824.534.828A.5.5 0 0 0 2.262 0z"/><path id="ac" d="M.981.363A.5.5 0 1 0 .02.638c.069.24.147.478.233.712l.02.052.008.021.028.073v.001l.008.02v.002l.009.02v.001l.008.022.003.007v.001l.006.013c0 .003.002.005.003.007v.002l.008.02.001.001.008.02v.002l.003.006.006.014a.282.282 0 0 1 .003.009l.009.02v.002l.008.02.001.002.003.006.005.012.001.003.003.006v.002l.005.01.001.003a.637.637 0 0 0 .004.009l.004.01.001.003.003.005v.003l.009.018.001.004a.21.21 0 0 0 .002.005l.002.003a.388.388 0 0 0 .003.01l.002.003.002.005.002.004.004.008.001.004a.512.512 0 0 1 .004.009l.003.007.002.005.002.005a.08.08 0 0 0 .002.004l.002.005.003.007.003.005.001.004.002.005.003.005.003.007a.15.15 0 0 1 .004.009l.002.005.003.006a.33.33 0 0 1 .002.005l.002.005.002.004.003.006.002.006.002.005.002.004.002.005.004.007.002.004.002.005.002.004c0 .003.002.006.003.008a.203.203 0 0 0 .004.009l.002.004.003.006.002.005.003.006.002.004.002.006.002.003.003.008.002.004.003.005.001.004a.505.505 0 0 0 .006.011l.002.006.002.003.004.009v.002l.004.007.001.003.004.008v.002l.005.008a.763.763 0 0 0 .004.01l.001.002.004.009.002.002c0 .003.002.005.003.007l.001.003.004.008.001.003.004.007.001.002.004.01.004.008.002.003.008.018.002.002c0 .003.002.006.003.008v.001a.482.482 0 0 0 .006.012l.004.007v.002c.003.003.004.006.005.01H.64a.982.982 0 0 0 .004.009v.001l.005.01.005.01.001.001.01.019v.001l.004.01a.509.509 0 0 1 .005.01l.005.01.006.01.004.01.01.02H.7l.01.02.01.02v.001l.04.075a.5.5 0 0 0 .886-.462A8.974 8.974 0 0 1 .981.363z"/><path id="ad" d="M.403.991c.648.128 1.289.27 1.904.424a.5.5 0 0 0 .255-.967A40.487 40.487 0 0 0 .586.008a.5.5 0 0 0-.182.984z"/><path id="ae" d="M.352.978c.63.195 1.246.407 1.83.63A.5.5 0 0 0 2.554.68 31.094 31.094 0 0 0 .633.018a.5.5 0 0 0-.28.96z"/><path id="af" d="M2.189.85a.5.5 0 0 0-.713-.7C.997.635.546 1.126.12 1.62a.5.5 0 0 0 .758.653c.408-.474.848-.952 1.31-1.422z"/><path id="ag" d="M1.047 2.344a.5.5 0 0 0 .901-.433A10.73 10.73 0 0 0 .894.192.5.5 0 0 0 .099.8c.37.495.688 1.015.948 1.545z"/><path id="ah" d="M.015.626l.031.125c.131.538.211 1.093.24 1.65a.5.5 0 0 0 .998-.047 9.855 9.855 0 0 0-.25-1.777L1.03.57V.569L1.03.562V.561L1.027.555V.553L1.025.547V.545L1.024.54V.538L1.022.532V.531a.186.186 0 0 1-.001-.007V.522A.496.496 0 0 0 .378.016a.505.505 0 0 0-.364.61z"/><path id="ai" d="M.5 2.148A.498.498 0 0 0 .8 2.05c.513-.382 1.05-.764 1.595-1.136a.5.5 0 0 0-.563-.827C1.27.469.728.856.2 1.247a.5.5 0 0 0 .3.901z"/><path id="aj" d="M.5 2.026c.091 0 .183-.025.266-.077A56.632 56.632 0 0 1 2.45.933a.5.5 0 0 0-.501-.866l-.075.044-.003.001-.009.006-.004.002-.008.005-.006.003a57.965 57.965 0 0 0-1.24.745L.6.874.59.881a.13.13 0 0 0-.012.007L.571.892a.116.116 0 0 1-.005.003L.558.9.556.902l-.324.201a.5.5 0 0 0 .269.923z"/><path id="ak" d="M.895.193a.5.5 0 1 0-.79.614L.108.81v.002L.116.82l.002.002A.427.427 0 0 0 .13.838L.13.841a.353.353 0 0 1 .005.005L.138.85l.006.007.002.003.004.005.003.004.005.006c0 .002.002.003.003.004l.003.004.004.005.004.005.003.004L.18.9l.004.006.004.004c0 .002.002.003.003.005l.003.003.006.008a.101.101 0 0 0 .006.007l.001.002.008.01A.718.718 0 0 0 .22.951l.002.002.008.01v.001l.014.017.001.001A12.388 12.388 0 0 0 .26 1l.014.017c.357.438.753.86 1.184 1.263a.498.498 0 0 0 .707-.023.5.5 0 0 0-.024-.707C1.678 1.117 1.26.66.895.193z"/><path id="al" d="M1.378.044a.498.498 0 0 0-.661.25c-.163.362-.31.724-.44 1.085l-.002.007a.211.211 0 0 1-.003.007v.001l-.002.007-.016.043v.001a.71.71 0 0 0-.002.006v.001l-.003.007v.001l-.003.006v.001a12.377 12.377 0 0 0-.015.043l-.002.007-.003.008v.001l-.003.006v.001l-.002.007-.015.043-.002.007v.001L.2 1.598v.001a.357.357 0 0 0-.003.006v.001l-.002.007-.013.037-.002.006c0 .001 0 0 0 0l-.002.008v.001l-.003.006v.001l-.002.007a13.143 13.143 0 0 0-.154.49.5.5 0 0 0 .96.28c.168-.573.386-1.16.649-1.743a.5.5 0 0 0-.25-.662z"/><path id="am" d="M.564 2.9a.5.5 0 0 0 .461-.536A9.463 9.463 0 0 1 1.067.56a.5.5 0 0 0-.993-.12C.057.59.042.742.031.89L.03.899v.01L.028.914v.002a.193.193 0 0 0-.001.009V.938L.026.94V.95L.025.953v.012L.024.97v.004a.074.074 0 0 1-.001.008v.012L.022.997v.011l-.001.005v.011l-.001.005v.01l-.001.006v.01l-.001.006V1.07l-.001.007v.008a10.204 10.204 0 0 0 .01 1.354.5.5 0 0 0 .536.461z"/><path id="an" d="M2.485 0h-.027C1.794.038 1.138.065.487.08a.5.5 0 0 0 .026 1.001 70.22 70.22 0 0 0 1.907-.076L2.514 1a.5.5 0 0 0-.029-1z"/><path id="ao" d="M.244 2.558a.497.497 0 0 0 .686-.174c.313-.526.668-1.06 1.054-1.588a.5.5 0 0 0-.807-.591L1.17.212s0 .002-.002.003L1.166.22l-.002.003-.003.004a.138.138 0 0 1-.007.009l-.006.008a.157.157 0 0 1-.003.004l-.003.004-.002.003-.003.005-.002.003-.004.005-.002.002a.803.803 0 0 1-.007.01l-.004.005-.001.002a1.498 1.498 0 0 0-.004.005l-.002.003-.01.015H1.1l-.005.007-.002.002c0 .002-.003.005-.004.006l-.001.002-.011.015-.001.002A.41.41 0 0 0 1.07.35v.002l-.006.006V.36l-.012.016-.005.008-.006.008C.714.85.41 1.31.132 1.77l-.004.008v.001l-.005.006v.002l-.005.007-.005.008-.002.003a.167.167 0 0 1-.004.008l-.002.003-.003.005-.001.002-.01.017-.001.001a.333.333 0 0 0-.004.006l-.015.026a.5.5 0 0 0 .173.686z"/><path id="ap" d="M2.958.833a.5.5 0 0 0-.41-.568c-.654-.1-1.321-.187-2-.263a.501.501 0 0 0-.103.995c.656.073 1.31.159 1.943.255a.5.5 0 0 0 .57-.42z"/><path id="aq" d="M2.292 0a.498.498 0 0 0-.221.052C1.488.34.895.622.29.9a.5.5 0 0 0 .418.909l.229-.106.013-.006h.002l.012-.006.003-.002.01-.004.005-.003c.003 0 .005-.002.007-.003A.365.365 0 0 1 1 1.675l.003-.002a.617.617 0 0 0 .01-.004l.002-.001c.307-.143.609-.286.91-.431l.012-.006.002-.001.011-.005.002-.001.01-.005.005-.003a.487.487 0 0 0 .009-.004l.005-.002.008-.004.007-.003L2 1.2l.01-.004a.306.306 0 0 0 .004-.002l.01-.006h.003l.487-.24A.5.5 0 0 0 2.292 0z"/><path id="ar" d="M2.235 0a.498.498 0 0 0-.249.067C1.425.39.851.707.265 1.02a.5.5 0 0 0 .47.883c.196-.104.39-.21.582-.314l.083-.046.014-.007.013-.007.002-.001.012-.007.014-.008a40.9 40.9 0 0 0 .082-.045l.027-.015h.001c.31-.172.617-.345.92-.52A.5.5 0 0 0 2.235 0z"/><path id="as" d="M2.375 0a.5.5 0 0 0-.171.03C1.59.256.969.474.34.686a.5.5 0 0 0 .318.95 83.156 83.156 0 0 0 .352-.12l.014-.005.017-.006.012-.004.018-.007c.004 0 .007-.002.011-.003l.02-.007.008-.003.022-.008.008-.002a3.384 3.384 0 0 0 .052-.018l.007-.003.023-.008.006-.002.023-.008.007-.002.023-.008.006-.002.024-.008.006-.003.024-.008.005-.002.024-.008.007-.002.022-.008.007-.003.022-.007.008-.003.022-.008.008-.002.021-.008.009-.003.02-.007.01-.003.02-.007.01-.004.019-.007.01-.003a1.754 1.754 0 0 0 .03-.01l.018-.007a.89.89 0 0 1 .012-.004l.017-.006.013-.005.014-.005.016-.005.01-.004.02-.007.005-.002.025-.009.005-.001.025-.01h.003l.026-.01h.003l.321-.115.029-.01.004-.002.025-.009.007-.002.02-.008.013-.005.016-.005.019-.007.009-.003a12.163 12.163 0 0 1 .029-.01l.021-.009a2.62 2.62 0 0 0 .03-.011h.004L2.547.97A.5.5 0 0 0 2.375 0z"/><path id="at" d="M2.977.002h-.004L2.841 0H2.815a70.13 70.13 0 0 0-.327 0l-.003-.001h-.05-.083a66.344 66.344 0 0 0-.809.007H1.472a.79.79 0 0 0-.012.001h-.003C1.135.013.811.02.485.03a.5.5 0 0 0 .03 1c.664-.02 1.32-.03 1.97-.03l.48.002h.003c.275 0 .5-.222.501-.498a.498.498 0 0 0-.492-.502z"/><path id="au" d="M2.162 0a.498.498 0 0 0-.279.086C1.351.445.797.804.236 1.153a.5.5 0 0 0 .527.85 54.646 54.646 0 0 0 .754-.477l.01-.007.011-.007.018-.012a.143.143 0 0 0 .01-.006l.008-.005.003-.002.01-.006.003-.003.01-.006.002-.002c.249-.16.495-.323.738-.486l.003-.002.008-.006c.002 0 .004-.003.006-.004.002 0 .003-.002.005-.003A.884.884 0 0 0 2.37.964l.003-.002.07-.048A.5.5 0 0 0 2.164 0z"/><path id="av" d="M2.979.649a.5.5 0 0 0-.456-.535A58.36 58.36 0 0 0 .5 0a.5.5 0 0 0-.02 1 57.823 57.823 0 0 1 2 .112A.5.5 0 0 0 2.98.65z"/><path id="aw" d="M2.339 0a.498.498 0 0 0-.196.04C1.543.296.934.546.317.79a.5.5 0 0 0 .364.931c.523-.206 1.04-.417 1.55-.632h.002l.026-.012c.002 0 .003 0 .005-.002l.022-.009.01-.004.018-.008.016-.007.01-.004.02-.008.008-.004.02-.008.008-.003.022-.01.005-.002.025-.01.002-.001.027-.012h.001L2.535.96A.5.5 0 0 0 2.339 0z"/><path id="ax" d="M.785.089a.497.497 0 0 0-.687.113.5.5 0 0 0 .104.7 14.2 14.2 0 0 1 1.426 1.205.498.498 0 0 0 .707-.01.5.5 0 0 0 0-.698C1.862.941 1.344.503.784.09z"/><path id="ay" d="M1.637.047a.498.498 0 0 0-.665.241C.715.837.413 1.395.074 1.949a.5.5 0 0 0 .853.523l.165-.275.023-.04.001-.001a.227.227 0 0 0 .003-.006l.001-.001.004-.006v-.002l.012-.019.003-.005.002-.003.002-.005.002-.002.002-.005.002-.002.003-.005.001-.003.004-.006.003-.006.002-.003.003-.004.002-.004.002-.004.002-.003c0-.002.002-.004.003-.005l.001-.003.004-.005v-.002l.005-.008v-.001l.005-.007V2.03l.004-.006.001-.002.004-.006v-.001l.005-.008.01-.016v-.001a.367.367 0 0 0 .005-.008l.004-.007v-.001l.023-.04c.232-.408.443-.815.634-1.222a.5.5 0 0 0-.242-.664z"/><path id="az" d="M.994.005A.5.5 0 0 0 .43.43a11.289 11.289 0 0 1-.406 1.79.5.5 0 0 0 .955.297c.076-.244.144-.488.205-.732a.33.33 0 0 1 .002-.008l.002-.007.022-.091v-.001l.002-.007v-.001l.002-.006v-.001l.002-.007v-.001l.001-.007v-.001a.29.29 0 0 1 .002-.007l.002-.007v-.001l.016-.068.002-.007v-.001l.001-.006v-.002l.002-.006v-.001l.002-.007v-.002l.001-.006.002-.007v-.002a.145.145 0 0 0 .002-.008l.002-.006v-.001l.001-.007.01-.045.002-.007v-.001l.002-.007v-.001l.001-.006v-.002l.002-.006V1.42l.002-.007v-.002l.001-.005v-.002l.002-.006v-.002l.002-.006.001-.008.002-.008.01-.044v-.002-.005l.001-.002.001-.006v-.002l.002-.005v-.003l.002-.005v-.003l.001-.005V1.29l.002-.005v-.003l.001-.004.001-.004V1.27l.002-.003V1.26l.001-.003.001-.005V1.25l.002-.005v-.002l.001-.005v-.004l.003-.008v-.004l.001-.004a.08.08 0 0 1 0-.004l.002-.004v-.004l.001-.003.001-.005v-.003l.002-.005v-.003l.001-.005V1.18l.002-.006v-.003l.001-.005v-.002l.002-.006v-.002l.001-.006v-.002l.002-.006V1.14l.002-.007a9.21 9.21 0 0 0 .01-.057v-.001l.002-.008.002-.008.003-.016c.029-.159.054-.317.076-.476A.5.5 0 0 0 .994.005z"/><path id="aA" d="M2.23 1.91a.5.5 0 0 0 .268-.924 22.311 22.311 0 0 0-1.8-.945.498.498 0 0 0-.65.246.5.5 0 0 0 .24.666c.592.279 1.16.577 1.69.888.08.046.167.068.253.068z"/><path id="aB" d="M2.067 0a.498.498 0 0 0-.314.111C1.257.511.736.913.203 1.304a.5.5 0 0 0 .593.806c.368-.27.727-.542 1.077-.817l.036-.028.003-.002.008-.006.004-.004a.945.945 0 0 0 .008-.006l.003-.002.01-.008.007-.005.004-.004a.664.664 0 0 0 .007-.005l.004-.003a.632.632 0 0 1 .007-.006l.002-.002c.137-.107.273-.216.407-.324A.5.5 0 0 0 2.067 0z"/><path id="aC" d="M1.933 0a.498.498 0 0 0-.354.147C1.134.593.66 1.042.167 1.482a.5.5 0 0 0 .665.747c.208-.186.412-.373.613-.56l.024-.023.002-.002.007-.006.003-.003.01-.01.005-.004.005-.005.005-.005.005-.005.006-.006.008-.006.005-.005a.192.192 0 0 1 .005-.005l.005-.005.005-.004.009-.009.004-.004.006-.006a.224.224 0 0 0 .011-.01l.004-.003.009-.01.003-.002.008-.007.003-.003.02-.02.002-.001.01-.01.023-.021v-.001l.034-.032.022-.021c.113-.108.224-.216.334-.324l.011-.01.022-.022a.687.687 0 0 0 .01-.01l.001-.001.011-.01.01-.01.002-.003.01-.008v-.001l.01-.01.003-.003.007-.007.002-.002.01-.01.002-.002.008-.008L2.17.97a.405.405 0 0 1 .006-.005L2.18.96l.006-.005.008-.009.003-.003.007-.006.002-.003.022-.021V.912l.06-.06A.5.5 0 0 0 1.933 0z"/><path id="aD" d="M1.736 0a.5.5 0 0 0-.401.2C.964.698.556 1.2.124 1.696a.5.5 0 0 0 .752.658l.084-.096a5.87 5.87 0 0 0 .02-.023l.002-.002.01-.011V2.22l.009-.01.003-.003.007-.009.004-.005a.484.484 0 0 0 .006-.006l.004-.005a.292.292 0 0 0 .004-.005l.009-.01.003-.003c.39-.454.755-.908 1.096-1.366A.5.5 0 0 0 1.736 0z"/><path id="aE" d="M.5 1.528a.501.501 0 0 0 .138-.02c.63-.18 1.265-.356 1.906-.524a.5.5 0 0 0-.253-.968l-.486.13-.03.007-.029.008-.003.001-.027.007-.004.001-.025.007L1.68.18l-.023.006-.008.003-.02.005-.013.003L1.601.2l-.016.005c-.004 0-.008.002-.011.003L1.55.214l-.007.002-.026.007h-.003A83.72 83.72 0 0 0 .36.548a.5.5 0 0 0 .14.98z"/><path id="aF" d="M2.482 0h-.028a65.24 65.24 0 0 0-.32.02h-.001l-.017.001-.017.001-.035.003h-.016L2.04.027h-.008l-.009.001h-.007l-.01.001H2L1.989.03h-.003c-.325.022-.652.045-.98.07L.991.102H.99L.976.102H.973L.96.103H.954l-.01.001-.007.001a5.962 5.962 0 0 1-.025.002H.908L.895.108H.89L.877.11H.874L.86.111H.858L.841.113C.713.123.584.133.456.145a.5.5 0 0 0 .087.996A72.749 72.749 0 0 1 2.51 1a.5.5 0 0 0-.029-1z"/><path id="aG" d="M2.452 0a.502.502 0 0 0-.104.01C1.7.148 1.053.276.41.395a.5.5 0 0 0 .18.984c.575-.107 1.153-.22 1.733-.34h.003a16.888 16.888 0 0 0 .059-.013l.028-.005.008-.002.025-.005.01-.002.014-.003.012-.003.02-.004.014-.003.012-.003.021-.004.006-.001A.5.5 0 0 0 2.452 0z"/><path id="aH" d="M.5 1.247a.507.507 0 0 0 .068-.005 77.53 77.53 0 0 1 1.96-.245.5.5 0 0 0-.109-.994A79.08 79.08 0 0 0 .43.252a.5.5 0 0 0 .07.995z"/><path id="aI" d="M.5 1.345c.03 0 .061-.003.093-.01.651-.122 1.3-.236 1.946-.341A.5.5 0 0 0 2.38.006C1.725.113 1.067.23.405.353a.5.5 0 0 0 .095.992z"/><path id="aJ" d="M.5 1.437a.502.502 0 0 0 .116-.013A84.53 84.53 0 0 1 2.544.99a.5.5 0 0 0-.206-.98 84.943 84.943 0 0 0-.44.095L1.89.107a1.686 1.686 0 0 0-.018.004l-.016.004a1.006 1.006 0 0 1-.014.003L1.828.12 1.81.125a9.834 9.834 0 0 0-.027.005l-.023.006-.009.001-.02.005-.006.001A3.869 3.869 0 0 0 1.7.15L1.694.15l-.026.006-.005.001a2.513 2.513 0 0 1-.029.006L1.61.17l-.007.002-.026.005-.003.001-.025.006-.006.001-.026.006L1.51.19a15.85 15.85 0 0 1-.024.006h-.003l-.026.006a.25.25 0 0 1-.007.002L1.425.21l-.006.002-.023.005h-.005a2.944 2.944 0 0 0-.025.006l-.009.002-.024.006-.006.001-.02.005-.009.002-.024.005-.009.002-.02.005-.012.002-.017.004a3.277 3.277 0 0 1-.059.014l-.019.004-.013.003-.014.003L1.1.284l-.022.005a.468.468 0 0 0-.01.002L1.04.298h-.005l-.017.005h-.002L.98.311H.977l-.594.14a.5.5 0 0 0 .117.986z"/><path id="aK" d="M2.468 0a.505.505 0 0 0-.08.006C1.733.111 1.081.207.433.295a.5.5 0 0 0 .134.991l.275-.037h.004l.027-.005h.005L.9 1.24l.008-.002.022-.003.012-.001.014-.002.022-.003.007-.001a5 5 0 0 1 .03-.004l.003-.001a80.928 80.928 0 0 0 1.53-.23.5.5 0 0 0-.08-.994z"/><path id="aL" d="M2.406 0a.5.5 0 0 0-.148.023C1.633.217 1 .405.363.586a.5.5 0 0 0 .273.963l.162-.047h.001l.03-.008.003-.001.027-.008.004-.001.026-.008.007-.002.023-.007.008-.002.022-.006.01-.003.02-.006.012-.003.016-.005.016-.004.013-.004.017-.005.012-.004a1.84 1.84 0 0 1 .019-.005l.01-.003.02-.006.01-.003a2.772 2.772 0 0 0 .03-.008l.023-.007.006-.002.025-.007.005-.002.025-.007.005-.001.027-.008h.001l.03-.01c.38-.111.758-.225 1.134-.341h.002a3.86 3.86 0 0 0 .025-.008l.007-.002.02-.007.012-.003.016-.005.02-.007.007-.002c.004 0 .007-.002.011-.003A.5.5 0 0 0 2.406 0z"/><path id="aM" d="M2.432 0a.502.502 0 0 0-.126.016A85.05 85.05 0 0 1 .386.49a.5.5 0 0 0 .228.974c.122-.028.245-.057.367-.087l.008-.002c.003 0 .006 0 .009-.002l.013-.003.006-.001.018-.005h.002l.288-.07.019-.004h.001l.018-.005h.001l.385-.095h.002l.017-.005h.002l.016-.004.003-.001.018-.005.006-.001.01-.003.01-.002.008-.002a.795.795 0 0 1 .012-.003h.002l.704-.18A.5.5 0 0 0 2.432 0z"/><path id="aN" d="M2.48 0a.502.502 0 0 0-.055.003C1.765.075 1.109.138.459.191a.5.5 0 0 0 .082.997c.607-.05 1.219-.108 1.834-.173h.002l.01-.002h.008l.008-.001.011-.002h.004l.116-.013A.5.5 0 0 0 2.48 0z"/><path id="aO" d="M2.39 0a.5.5 0 0 0-.15.023A81.7 81.7 0 0 0 .339.645a.5.5 0 0 0 .323.947c.618-.21 1.244-.416 1.877-.614A.5.5 0 0 0 2.39 0z"/><path id="aP" d="M6.202 3.23c-.049-.011-.095-.026-.144-.039.01-.096.03-.189.03-.287A2.906 2.906 0 0 0 3.183 0C2.145 0 1.24.553.726 1.377L.71 1.369a.498.498 0 0 0-.663.246.5.5 0 0 0 .246.664l.054.022a2.906 2.906 0 0 0 2.838 3.506c1.151 0 2.139-.678 2.608-1.651.06.014.115.032.175.047a.499.499 0 0 0 .603-.368.5.5 0 0 0-.368-.604zM3.184 4.808a1.905 1.905 0 0 1-1.902-1.903c0-.071.013-.138.02-.207.039-.347.167-.665.366-.93A1.895 1.895 0 0 1 3.184 1c1.05 0 1.903.854 1.903 1.904l-.002.023a1.883 1.883 0 0 1-.28.96 1.897 1.897 0 0 1-1.62.92z"/><path id="aQ" d="M1.968 3.938A1.97 1.97 0 0 1 0 1.97 1.97 1.97 0 0 1 1.968 0a1.97 1.97 0 0 1 1.968 1.97 1.97 1.97 0 0 1-1.968 1.968zm0-2.938a.97.97 0 0 0 0 1.938.97.97 0 0 0 0-1.938z"/><path id="aR" d="M.823 1.646A.823.823 0 1 0 .823 0a.823.823 0 0 0 0 1.646z"/><path id="aS" d="M3.631 1.565H2.566V.5a.5.5 0 1 0-1 0v1.065H.5a.5.5 0 1 0 0 1h1.066v1.066a.5.5 0 1 0 1 0V2.566H3.63a.5.5 0 1 0 0-1z"/><path id="aT" d="M15.176 36.205l-2.927-1.917c.237-7.146 4.825-9.103 8.526-10.683.78-.333 1.519-.647 2.169-.992l.535-.28c3.425-1.8 5.144-2.703 5.144-7.233 0-5.965-3.516-7.186-7.316-7.616a11.768 11.768 0 0 0-1.341-.077c-2.954 0-5.667 1.148-7.442 3.15-1.294 1.458-1.983 3.244-1.987 5.11h-7.76L0 13.719c.52-4.865 3.935-8.045 6.758-9.872C10.533 1.402 15.36 0 20 0c.438 0 .872.013 1.302.04 6.622.4 12.21 2.683 15.33 6.258 2.114 2.423 3.055 5.386 2.798 8.809-.58 7.703-5.432 9.964-9.713 11.958-1.249.582-2.428 1.132-3.398 1.784-2.067 1.376-3.052 2.765-3.052 6.926l.004.43h-8.096z"/><path id="aU" d="M20.876 1.674c.421 0 .842.013 1.251.038 6.306.382 11.82 2.616 14.75 5.974 1.962 2.247 2.834 5.004 2.594 8.195-.542 7.214-4.96 9.272-9.231 11.262-1.28.596-2.487 1.159-3.505 1.844-2.503 1.667-3.367 3.45-3.425 7.218H16.3l-2.317-1.518c.394-6.232 4.423-7.95 7.996-9.475.797-.34 1.55-.661 2.23-1.021l.533-.28c3.488-1.832 5.593-2.938 5.593-7.975 0-6.64-4.074-7.996-8.06-8.448a12.79 12.79 0 0 0-1.434-.082c-3.194 0-6.135 1.25-8.07 3.431-1.237 1.396-1.974 3.065-2.153 4.83H3.917l-2.144-1.504c1.19-7.51 10.602-12.489 19.103-12.489zm0-1.674C11.556 0 .626 5.628 0 14.964l3.388 2.377H12.3c-.534-4.442 3.315-8.26 8.542-8.26.407 0 .824.023 1.246.07 3.484.396 6.573 1.35 6.573 6.785 0 4.234-1.492 4.798-5.232 6.774s-11.08 3.193-11.15 12.86l3.523 2.31h9.192l-.013-1.268c0-3.809.776-4.962 2.682-6.232 4.092-2.752 12.684-3.82 13.478-14.373C41.936 5.449 31.827.623 22.23.04 21.783.013 21.332 0 20.876 0z"/><path id="aV" d="M12.258 34.034c.147-8.078 3.54-10.546 7.31-12.538.833-.44 1.71-.814 2.559-1.176 2.916-1.243 5.933-2.529 5.933-6.338 0-4.863-3.63-7.542-10.223-7.542-4.559 0-9.427 2.442-10.022 6.987H0C.548 3.547 9.555 0 17.977 0c4.24 0 18.075 1.013 18.075 14.052 0 6.86-5.343 9.43-9.638 11.495-1.289.62-2.507 1.206-3.47 1.854-2.014 1.342-2.941 3.346-3.043 6.633h-7.643z"/><path id="aW" d="M18.84 1.674c4.045 0 17.239.953 17.239 13.216 0 6.332-4.869 8.674-9.164 10.74-1.317.634-2.561 1.232-3.568 1.91-2.498 1.663-3.206 4.183-3.379 6.494h-5.982c.343-6.95 3.304-9.093 6.837-10.96.802-.424 1.663-.79 2.495-1.145 3.02-1.288 6.442-2.747 6.442-7.11 0-5.324-4.031-8.378-11.06-8.378-6.085 0-9.79 3.359-10.699 6.986H1.776C2.782 4.8 11.073 1.674 18.84 1.674zm0-1.674C8.892 0 .07 4.658 0 15.101h9.456c.07-4.445 4.728-6.986 9.244-6.986 4.375 0 9.386 1.27 9.386 6.704 0 4.234-4.305 4.798-8.045 6.775-3.74 1.975-7.763 4.65-7.763 13.83v.284h9.315v-.213c0-3.316.776-5.293 2.682-6.562 4.092-2.752 13.478-4.539 13.478-14.043C37.753 4.302 28.791 0 18.841 0z"/><path id="aX" d="M4.514 8.5c-.686 0-1.378-.207-2.117-.634L0 6.421.948 5l.004-.247a3.868 3.868 0 0 1 2.322-3.481l.226-.098L4.283 0l2.563 1.562c.95.7 1.53 1.836 1.53 3.077a3.866 3.866 0 0 1-3.862 3.862z"/><path id="aY" d="M5.717 2.267l1.81 1.103A2.994 2.994 0 0 1 8.72 5.772a3.028 3.028 0 0 1-3.024 3.024c-.535 0-1.09-.17-1.671-.506l-1.66-1.001.324-.486.274-.41.007-.493A3.03 3.03 0 0 1 4.79 3.174l.452-.196.274-.41.2-.301zM5.217 0L4.122 1.638a4.697 4.697 0 0 0-2.826 4.235L0 7.817l3.16 1.907c.759.438 1.602.747 2.537.747a4.699 4.699 0 0 0 4.699-4.699 4.687 4.687 0 0 0-1.931-3.79L5.216 0z"/><path id="aZ" d="M3.862 7.723A3.866 3.866 0 0 1 0 3.862 3.866 3.866 0 0 1 3.862 0a3.866 3.866 0 0 1 3.861 3.862 3.866 3.866 0 0 1-3.861 3.861z"/><path id="ba" d="M4.699 1.674A3.028 3.028 0 0 1 7.723 4.7 3.028 3.028 0 0 1 4.7 7.723 3.028 3.028 0 0 1 1.674 4.7 3.028 3.028 0 0 1 4.7 1.674zm0-1.674a4.699 4.699 0 1 0 0 9.398 4.699 4.699 0 0 0 0-9.398z"/><path id="bb" d="M3.931.698c.487 0 .94.126 1.348.331A3.005 3.005 0 0 0 3.024 0 3.028 3.028 0 0 0 0 3.024C0 4.205.687 5.22 1.676 5.717a3 3 0 0 1-.769-1.995A3.028 3.028 0 0 1 3.931.698z"/><path id="bc" d="M7.255 12.82c.803-.423 1.663-.79 2.496-1.145 3.02-1.288 6.442-2.747 6.442-7.11 0-1.79-.467-3.318-1.34-4.565.6 1.111.921 2.407.921 3.885 0 4.363-3.422 5.822-6.442 7.11-.832.355-1.693.722-2.495 1.145C3.304 14.007.343 16.15 0 23.1h.719c.485-6.401 3.124-8.477 6.536-10.28z"/><path id="bd" d="M17.484.68c3.084 0 11.488.561 15.303 6.267C29.207.604 20.268 0 17.065 0 9.297 0 1.006 3.127 0 11.752h.538C1.898 3.654 9.928.68 17.484.68z"/></defs></svg>